<svg xmlns="http://www.w3.org/2000/svg" version="1.1" xmlns:xlink="http://www.w3.org/1999/xlink" xmlns:svgjs="http://svgjs.dev/svgjs" width="128" height="128"><svg width="128" height="128" viewBox="0 0 128 128" fill="none" xmlns="http://www.w3.org/2000/svg">
<rect width="128" height="128" fill="#F1B434"></rect>
<path fill-rule="evenodd" clip-rule="evenodd" d="M28.3883 58.1582C29.1811 58.1517 29.9673 58.3024 30.7014 58.6018C31.4356 58.9011 32.103 59.3432 32.6652 59.9022C33.2273 60.4613 33.673 61.1263 33.9763 61.8588C34.2797 62.5913 34.4348 63.3767 34.4326 64.1695C34.4408 64.307 34.4408 64.4449 34.4326 64.5824C34.5098 66.1292 33.9769 67.6446 32.9485 68.8027C31.9201 69.9608 30.4784 70.6691 28.9332 70.7753H28.3883C27.614 70.7973 26.8429 70.6665 26.1192 70.3904C25.3954 70.1142 24.7332 69.6982 24.1704 69.166C23.6075 68.6338 23.155 67.9959 22.8388 67.2888C22.5226 66.5816 22.3488 65.8191 22.3274 65.0448C22.3274 64.8631 22.3274 64.6814 22.3274 64.4833C22.2759 63.6979 22.38 62.91 22.6338 62.1649C22.8875 61.4198 23.2859 60.7322 23.8061 60.1414C24.3262 59.5507 24.9579 59.0685 25.6649 58.7225C26.3719 58.3765 27.1402 58.1735 27.9259 58.1252H28.3718M28.3718 47.3412C18.5786 47.3412 10.5195 54.0461 10.5195 64.3346C10.5195 74.6232 18.5786 81.1795 28.3883 81.1795C38.1979 81.1795 46.2405 74.8709 46.2405 64.3677C46.2405 53.8644 38.1979 47.3742 28.3883 47.3742L28.3718 47.3412Z" fill="#2D2926"></path>
<path d="M52.4141 80.6484H73.9821V70.1286H64.1394V47.9165H52.4141V80.6484Z" fill="#2D2926"></path>
<path fill-rule="evenodd" clip-rule="evenodd" d="M95.3865 58.1526C96.1793 58.146 96.9655 58.2968 97.6996 58.5962C98.4338 58.8955 99.1012 59.3375 99.6634 59.8966C100.226 60.4557 100.671 61.1207 100.975 61.8532C101.278 62.5857 101.433 63.3711 101.431 64.1639C101.439 64.3014 101.439 64.4392 101.431 64.5767C101.484 65.3777 101.378 66.1813 101.118 66.9406C100.857 67.7 100.448 68.3999 99.9147 68.9995C99.3809 69.599 98.7331 70.0863 98.009 70.4328C97.2849 70.7793 96.4991 70.9781 95.6973 71.0176C94.8955 71.0571 94.0939 70.9365 93.3393 70.6628C92.5847 70.3891 91.8921 69.9679 91.302 69.4236C90.712 68.8794 90.2362 68.2231 89.9026 67.4929C89.5689 66.7628 89.384 65.9736 89.3587 65.1713V64.5767C89.3072 63.7913 89.4113 63.0035 89.665 62.2584C89.9188 61.5133 90.3172 60.8256 90.8373 60.2349C91.3575 59.6442 91.9892 59.162 92.6962 58.816C93.4031 58.47 94.1715 58.267 94.9571 58.2186H95.403M95.403 47.4346C85.6099 47.4346 77.5508 54.1396 77.5508 64.4281C77.5508 74.7167 85.5934 81.1739 95.3865 81.1739C105.18 81.1739 113.239 74.8653 113.239 64.3621C113.239 53.8588 105.196 47.3686 95.3865 47.3686L95.403 47.4346Z" fill="#2D2926"></path>
<path fill-rule="evenodd" clip-rule="evenodd" d="M119.018 49.2073C119.431 49.2073 119.794 49.2073 119.794 49.6697C119.794 50.1321 119.167 50.0496 118.688 50.0496H118.176V49.2073H119.018ZM119.365 50.545C119.595 50.554 119.818 50.4725 119.988 50.3181C120.158 50.1636 120.261 49.9486 120.273 49.7193C120.282 49.7042 120.287 49.6871 120.287 49.6697C120.287 49.6523 120.282 49.6353 120.273 49.6202C120.273 48.8936 119.728 48.7119 119.117 48.7119H117.664V52.1139H118.16V50.545H118.787L119.662 52.1139H120.224L119.365 50.545ZM118.853 47.8531C119.355 47.8564 119.846 48.0083 120.262 48.2898C120.678 48.5712 121.001 48.9695 121.191 49.4345C121.381 49.8995 121.429 50.4103 121.329 50.9026C121.229 51.3948 120.985 51.8465 120.629 52.2005C120.273 52.5545 119.82 52.7951 119.327 52.8919C118.834 52.9887 118.323 52.9374 117.86 52.7444C117.396 52.5514 117 52.2255 116.721 51.8076C116.442 51.3897 116.293 50.8987 116.293 50.3964C116.291 50.0604 116.356 49.7273 116.484 49.4167C116.612 49.106 116.801 48.824 117.039 48.5872C117.278 48.3504 117.561 48.1635 117.872 48.0374C118.184 47.9114 118.517 47.8487 118.853 47.8531ZM118.853 53.4185C119.454 53.4185 120.042 53.2403 120.541 52.9064C121.041 52.5725 121.431 52.098 121.661 51.5427C121.89 50.9875 121.951 50.3765 121.833 49.787C121.716 49.1976 121.427 48.6562 121.002 48.2312C120.577 47.8062 120.035 47.5168 119.446 47.3996C118.857 47.2823 118.246 47.3425 117.69 47.5725C117.135 47.8025 116.66 48.192 116.327 48.6917C115.993 49.1914 115.814 49.7789 115.814 50.3799C115.814 51.161 116.124 51.9104 116.674 52.4643C117.225 53.0182 117.973 53.3316 118.754 53.336L118.853 53.4185Z" fill="#2D2926"></path>
</svg><style>@media (prefers-color-scheme: light) { :root { filter: none; } }
@media (prefers-color-scheme: dark) { :root { filter: none; } }
</style></svg>