<svg width="96" height="112" viewBox="0 0 48 56" fill="none" xmlns="http://www.w3.org/2000/svg">
    <path d="M48 24C48 37.2548 24 56 24 56C24 56 0 37.2548 0 24C0 10.7452 10.7452 0 24 0C37.2548 0 48 10.7452 48 24Z"
          fill="currentColor"/>
    <path d="M34.6732 23.3333C34.6732 25.443 34.0476 27.5053 32.8755 29.2594C31.7035 31.0135 30.0375 32.3807 28.0885 33.188C26.1394 33.9954 23.9947 34.2066 21.9256 33.795C19.8564 33.3835 17.9558 32.3676 16.464 30.8758C14.9723 29.384 13.9564 27.4834 13.5448 25.4143C13.1332 23.3452 13.3445 21.2005 14.1518 19.2514C14.9591 17.3023 16.3263 15.6364 18.0804 14.4643C19.8346 13.2923 21.8968 12.6667 24.0065 12.6667V10L29.7754 14.9883L24.0065 20L24.0065 17.3099C22.8152 17.3099 21.6506 17.6632 20.6601 18.325C19.6695 18.9869 18.8975 19.9276 18.4416 21.0283C17.9857 22.1289 17.8664 23.34 18.0988 24.5084C18.3313 25.6769 18.9049 26.7501 19.7473 27.5925C20.5897 28.4349 21.663 29.0086 22.8314 29.241C23.9998 29.4734 25.2109 29.3541 26.3116 28.8982C27.4122 28.4423 28.3529 27.6703 29.0148 26.6798C29.6767 25.6892 30.0299 24.5246 30.0299 23.3333H34.6732Z"
          fill="#2D2926"/>
</svg>