<svg width="96" height="112" viewBox="0 0 96 112" fill="none" xmlns="http://www.w3.org/2000/svg">
    <path d="M96 48C96 74.5097 48 112 48 112C48 112 0 74.5097 0 48C0 21.4903 21.4903 0 48 0C74.5097 0 96 21.4903 96 48Z"
          fill="currentColor"/>
    <path d="M44.2667 44.267L47.2334 39.367L45.2667 36.1003C45 35.6559 44.6167 35.4337 44.1167 35.4337C43.6167 35.4337 43.2334 35.6559 42.9667 36.1003L39.7 41.5337L44.2667 44.267ZM57.1667 53.3337L54.2 48.4003L58.8334 45.7337L60.9667 49.3003C61.2112 49.6781 61.3445 50.1003 61.3667 50.567C61.3889 51.0337 61.2889 51.467 61.0667 51.867C60.8445 52.3114 60.5167 52.667 60.0834 52.9337C59.65 53.2003 59.1778 53.3337 58.6667 53.3337H57.1667ZM53.3334 62.667L48 57.3337L53.3334 52.0003V54.667H59.6667L57.7334 58.5337C57.4889 58.9781 57.1556 59.3337 56.7334 59.6003C56.3112 59.867 55.8445 60.0003 55.3334 60.0003H53.3334V62.667ZM40.4334 60.0003C39.9889 60.0003 39.5834 59.8837 39.2167 59.6503C38.85 59.417 38.5778 59.1114 38.4 58.7337C38.2223 58.3781 38.1389 58.0059 38.15 57.617C38.1612 57.2281 38.2667 56.867 38.4667 56.5337L39.6 54.667H45.3334V60.0003H40.4334ZM37.1334 56.2003L34.9667 51.867C34.7667 51.467 34.6723 51.0392 34.6834 50.5837C34.6945 50.1281 34.8223 49.7003 35.0667 49.3003L35.6 48.4003L33.3334 47.0337L40.6334 45.2003L42.4667 52.5337L40.1667 51.1337L37.1334 56.2003ZM55.1334 44.8003L47.8334 42.967L50.1334 41.6003L45.9667 34.667H50.6667C51.1334 34.667 51.5723 34.7837 51.9834 35.017C52.3945 35.2503 52.7223 35.567 52.9667 35.967L54.7 38.867L56.9667 37.467L55.1334 44.8003Z"
          fill="#221F1D"/>
</svg>