<svg
  width="24"
  height="24"
  viewBox="0 0 24 24"
  fill="currentColor"
  xmlns="http://www.w3.org/2000/svg"
>
  <path
    d="M19 2H5C3.895 2 3 2.895 3 4V18C3 19.105 3.895 20 5 20H9L12 23L15 20H19C20.105 20 21 19.105 21 18V4C21 2.895 20.105 2 19 2ZM13 18H11V16H13V18ZM15.065 10.255L14.17 11.175C13.45 11.895 13 12.5 13 14H11V13.5C11 12.395 11.45 11.395 12.17 10.67L13.415 9.41C13.775 9.05 14 8.55 14 8C14 6.895 13.105 6 12 6C10.895 6 10 6.895 10 8H8C8 5.79 9.79 4 12 4C14.21 4 16 5.79 16 8C16 8.88 15.645 9.675 15.065 10.255Z"
  />
</svg>
