<svg
  width="20"
  height="20"
  viewBox="0 0 20 20"
  fill="currentColor"
  xmlns="http://www.w3.org/2000/svg"
>
  <path
    d="M5.52083 8.99583C6.72083 11.3542 8.65 13.2833 11.0125 14.4833L12.8458 12.6458C13.075 12.4167 13.4042 12.35 13.6917 12.4417C14.625 12.75 15.6292 12.9167 16.6667 12.9167C17.1292 12.9167 17.5 13.2875 17.5 13.75V16.6667C17.5 17.1292 17.1292 17.5 16.6667 17.5C8.84167 17.5 2.5 11.1583 2.5 3.33333C2.5 2.87083 2.875 2.5 3.33333 2.5H6.25C6.7125 2.5 7.08333 2.87083 7.08333 3.33333C7.08333 4.37083 7.25 5.375 7.55833 6.30833C7.65 6.59583 7.58333 6.925 7.35417 7.15417L5.52083 8.99583Z"
  />
</svg>
