<svg
  width="20"
  height="20"
  viewBox="0 0 20 20"
  fill="currentColor"
  xmlns="http://www.w3.org/2000/svg"
>
  <path
    d="M0.833496 17.5H4.16683V7.50004H0.833496V17.5ZM19.1668 8.33337C19.1668 7.41254 18.421 6.66671 17.5002 6.66671H12.2377L13.0335 2.85837C13.0502 2.77504 13.0627 2.68754 13.0627 2.59587C13.0627 2.25004 12.921 1.93754 12.696 1.71254L11.8085 0.833374L6.321 6.32087C6.021 6.62504 5.8335 7.04171 5.8335 7.50004V15.8334C5.8335 16.7542 6.57933 17.5 7.50016 17.5H15.0002C15.6918 17.5 16.2835 17.0792 16.5335 16.4834L19.046 10.6084C19.121 10.4167 19.1668 10.2125 19.1668 10V8.40421L19.1585 8.39587L19.1668 8.33337Z"
  />
</svg>
