<svg
  width="20"
  height="20"
  viewBox="0 0 20 20"
  fill="currentColor"
  xmlns="http://www.w3.org/2000/svg"
>
  <path
    d="M12.5002 2.5H5.00016C4.3085 2.5 3.71683 2.92083 3.46683 3.51667L0.954329 9.39167C0.879329 9.58333 0.833496 9.7875 0.833496 10V11.5958L0.841829 11.6042L0.833496 11.6667C0.833496 12.5875 1.57933 13.3333 2.50016 13.3333H7.76266L6.96683 17.1417C6.95016 17.225 6.93766 17.3125 6.93766 17.4042C6.93766 17.75 7.07933 18.0625 7.30433 18.2875L8.19183 19.1667L13.6793 13.6792C13.9793 13.375 14.1668 12.9583 14.1668 12.5V4.16667C14.1668 3.24583 13.421 2.5 12.5002 2.5ZM15.8335 2.5V12.5H19.1668V2.5H15.8335Z"
  />
</svg>
