<svg
  width="24"
  height="24"
  viewBox="0 0 24 24"
  stroke="currentColor"
  stroke-width="1.5"
  stroke-miterlimit="10"
  fill="none"
  xmlns="http://www.w3.org/2000/svg"
>
  <path
    d="M12.0002 19.1344C15.9456 19.1344 19.1439 15.9361 19.1439 11.9907C19.1439 8.04529 15.9456 4.84692 12.0002 4.84692C8.05481 4.84692 4.85645 8.04529 4.85645 11.9907C4.85645 15.9361 8.05481 19.1344 12.0002 19.1344Z"
  />
  <path d="M4.85645 11.9907H19.1439" />
  <path
    d="M11.734 4.86572C10.0568 6.86837 9.1377 9.39728 9.1377 12.0095C9.1377 14.6217 10.0568 17.1506 11.734 19.1532V19.1532"
  />
  <path
    d="M12.2666 19.1344C13.9438 17.1318 14.8629 14.6029 14.8629 11.9907C14.8629 9.37848 13.9438 6.84957 12.2666 4.84692V4.84692"
  />
  <path
    d="M6.47266 7.46826H6.49891C8.18625 8.38925 10.0778 8.87187 12.0002 8.87187C13.9225 8.87187 15.8141 8.38925 17.5014 7.46826"
  />
  <path
    d="M17.5014 16.5132H17.4752C15.7878 15.5922 13.8962 15.1096 11.9739 15.1096C10.0516 15.1096 8.16 15.5922 6.47266 16.5132V16.5132"
  />
</svg>
