<svg
  width="62"
  height="20"
  viewBox="0 0 62 20"
  fill="currentColor"
  xmlns="http://www.w3.org/2000/svg"
>
  <path
    id="Vector"
    fill-rule="evenodd"
    clip-rule="evenodd"
    d="M9.94525 6.69087C10.3817 6.68726 10.8145 6.77026 11.2186 6.93505C11.6227 7.09984 11.9901 7.34316 12.2996 7.65092C12.609 7.95868 12.8544 8.32476 13.0214 8.72798C13.1884 9.13119 13.2737 9.56353 13.2725 9.99996C13.2771 10.0757 13.2771 10.1515 13.2725 10.2272C13.315 11.0787 13.0217 11.9129 12.4556 12.5504C11.8895 13.1879 11.0958 13.5778 10.2452 13.6363H9.94525C9.51901 13.6484 9.09456 13.5764 8.69616 13.4244C8.29776 13.2724 7.93322 13.0434 7.62338 12.7504C7.31353 12.4575 7.06446 12.1063 6.89039 11.7171C6.71631 11.3278 6.62066 10.908 6.60889 10.4818C6.60889 10.3818 6.60889 10.2818 6.60889 10.1727C6.58054 9.74033 6.63785 9.30663 6.77753 8.89648C6.91721 8.48632 7.13651 8.10779 7.42285 7.7826C7.70919 7.45741 8.05692 7.19197 8.4461 7.0015C8.83528 6.81103 9.25823 6.69929 9.6907 6.67269H9.93616M9.93616 0.736328C4.54525 0.736328 0.108887 4.42723 0.108887 10.0909C0.108887 15.7545 4.54525 19.3636 9.94525 19.3636C15.3452 19.3636 19.7725 15.8909 19.7725 10.1091C19.7725 4.32723 15.3452 0.75451 9.94525 0.75451L9.93616 0.736328Z"
  />
  <path id="Vector_2" d="M23.1729 19.0729H35.0456V13.282H29.6274V1.05469H23.1729V19.0729Z" />
  <path
    id="Vector_3"
    fill-rule="evenodd"
    clip-rule="evenodd"
    d="M46.8275 6.69076C47.2639 6.68715 47.6967 6.77014 48.1008 6.93494C48.5049 7.09973 48.8723 7.34305 49.1818 7.65081C49.4912 7.95856 49.7366 8.32465 49.9036 8.72786C50.0706 9.13108 50.1559 9.56342 50.1547 9.99985C50.1593 10.0755 50.1593 10.1514 50.1547 10.2271C50.1843 10.668 50.1257 11.1104 49.9824 11.5284C49.8391 11.9464 49.6139 12.3317 49.3201 12.6617C49.0263 12.9918 48.6697 13.26 48.2711 13.4508C47.8725 13.6415 47.4399 13.7509 46.9986 13.7727C46.5572 13.7944 46.1159 13.728 45.7005 13.5774C45.2851 13.4267 44.9039 13.1948 44.5791 12.8952C44.2542 12.5956 43.9923 12.2343 43.8087 11.8324C43.625 11.4305 43.5232 10.9961 43.5093 10.5544V10.2271C43.4809 9.79476 43.5382 9.36106 43.6779 8.95091C43.8176 8.54076 44.0369 8.16222 44.3232 7.83703C44.6096 7.51184 44.9573 7.2464 45.3465 7.05593C45.7357 6.86546 46.1586 6.75372 46.5911 6.72712H46.8365M46.8365 0.790756C41.4456 0.790756 37.0093 4.48167 37.0093 10.1453C37.0093 15.8089 41.4366 19.3635 46.8275 19.3635C52.2184 19.3635 56.6547 15.8908 56.6547 10.1089C56.6547 4.32712 52.2275 0.754395 46.8275 0.754395L46.8365 0.790756Z"
  />
  <path
    id="Vector_4"
    fill-rule="evenodd"
    clip-rule="evenodd"
    d="M59.8364 1.65472C60.0637 1.65472 60.2637 1.65471 60.2637 1.90926C60.2637 2.16381 59.9182 2.11835 59.6546 2.11835H59.3728V1.65472H59.8364ZM60.0273 2.39108C60.1536 2.39605 60.2768 2.35118 60.3703 2.26615C60.4639 2.18112 60.5202 2.06274 60.5273 1.93653C60.5321 1.92824 60.5346 1.91883 60.5346 1.90926C60.5346 1.89969 60.5321 1.89028 60.5273 1.88199C60.5273 1.48199 60.2273 1.38199 59.8909 1.38199H59.0909V3.25472H59.3637V2.39108H59.7091L60.1909 3.25472H60.5L60.0273 2.39108ZM59.7455 0.909261C60.022 0.911057 60.2918 0.99469 60.5208 1.14961C60.7498 1.30453 60.9278 1.52381 61.0324 1.77978C61.137 2.03574 61.1634 2.31695 61.1084 2.58792C61.0533 2.85889 60.9193 3.1075 60.7231 3.30238C60.527 3.49727 60.2775 3.6297 60.0062 3.68299C59.7349 3.73628 59.4538 3.70802 59.1986 3.6018C58.9433 3.49557 58.7252 3.31614 58.5717 3.08611C58.4183 2.85608 58.3364 2.58577 58.3364 2.30926C58.3352 2.1243 58.3708 1.94096 58.4413 1.76995C58.5118 1.59895 58.6157 1.44372 58.7469 1.31335C58.8781 1.18299 59.034 1.0801 59.2055 1.01071C59.377 0.94133 59.5605 0.906839 59.7455 0.909261ZM59.7455 3.9729C60.0763 3.9729 60.3997 3.87479 60.6748 3.69099C60.9499 3.50719 61.1643 3.24595 61.2909 2.9403C61.4175 2.63465 61.4506 2.29831 61.3861 1.97384C61.3215 1.64936 61.1622 1.35131 60.9283 1.11737C60.6943 0.883439 60.3963 0.724125 60.0718 0.659582C59.7473 0.59504 59.411 0.628168 59.1054 0.754773C58.7997 0.881378 58.5385 1.09577 58.3547 1.37085C58.1709 1.64593 58.0728 1.96933 58.0728 2.30017C58.0727 2.73018 58.2429 3.14271 58.5462 3.44762C58.8494 3.75254 59.2609 3.92504 59.6909 3.92744L59.7455 3.9729Z"
  />
</svg>
