<svg width="24" height="24" viewBox="0 0 24 24" fill="none" xmlns="http://www.w3.org/2000/svg">
  <path
    d="M12 6C13.1046 6 14 5.10457 14 4C14 2.89543 13.1046 2 12 2C10.8954 2 10 2.89543 10 4C10 5.10457 10.8954 6 12 6Z"
    fill="currentColor"/>
  <path
    d="M19 12.9999V10.9999C17.465 11.0199 15.91 10.2499 14.93 9.16492L13.635 7.73492C13.46 7.54492 13.25 7.39492 13.025 7.27992C13.015 7.27492 13.01 7.26992 13.005 7.26492H12.995C12.65 7.06492 12.24 6.96492 11.805 7.00992C10.765 7.10992 10 8.04492 10 9.08992V14.9999C10 16.1049 10.895 16.9999 12 16.9999H17V21.9999H19V16.4999C19 15.3949 18.105 14.4999 17 14.4999H14V11.0499C15.29 12.1149 17.245 12.9949 19 12.9999ZM12.825 17.9999C12.415 19.1649 11.305 19.9999 10 19.9999C8.345 19.9999 7 18.6549 7 16.9999C7 15.6949 7.835 14.5849 9 14.1749V12.0999C6.72 12.5649 5 14.5799 5 16.9999C5 19.7599 7.24 21.9999 10 21.9999C12.42 21.9999 14.435 20.2799 14.9 17.9999H12.825Z"
    fill="currentColor"/>
</svg>

