<svg width="24" height="24" viewBox="0 0 24 24" fill="none" xmlns="http://www.w3.org/2000/svg">
    <path d="M23.1938 15.1813H22.4925V5.43963H4.79053V4.73828H23.1938V15.1813Z" fill="#1D1D1B" />
    <path d="M21.3841 16.9821H20.6827V7.24041H2.98779V6.53906H21.3841V16.9821Z" fill="#1D1D1B" />
    <path d="M19.5817 19.5933H0.708496V8.34375H19.5817V19.5933ZM1.40984 18.892H18.8803V9.04509H1.40984V18.892Z"
        fill="#1D1D1B" />
    <path d="M16.5449 13.6172H15.6401V14.3185H16.5449V13.6172Z" fill="#1D1D1B" />
    <path d="M4.78315 13.6172H3.87842V14.3185H4.78315V13.6172Z" fill="#1D1D1B" />
    <path
        d="M19.0628 12.2694L16.8466 11.0771L15.6543 8.86088L16.2715 8.53125L17.3656 10.5581L19.3995 11.6522L19.0628 12.2694Z"
        fill="#1D1D1B" />
    <path
        d="M1.22727 12.2694L0.890625 11.6522L2.92452 10.5581L4.01862 8.53125L4.6358 8.86088L3.44352 11.0771L1.22727 12.2694Z"
        fill="#1D1D1B" />
    <path
        d="M4.01862 19.4022L2.92452 17.3753L0.890625 16.2812L1.22727 15.6641L3.44352 16.8563L4.6358 19.0726L4.01862 19.4022Z"
        fill="#1D1D1B" />
    <path
        d="M16.2715 19.4022L15.6543 19.0726L16.8466 16.8563L19.0628 15.6641L19.3995 16.2812L17.3656 17.3753L16.2715 19.4022Z"
        fill="#1D1D1B" />
    <path
        d="M10.1415 17.9392C7.95329 17.9392 6.17188 16.1578 6.17188 13.9696C6.17188 11.7814 7.95329 10 10.1415 10C12.3297 10 14.1111 11.7814 14.1111 13.9696C14.1111 16.1578 12.3367 17.9392 10.1415 17.9392ZM10.1415 10.7013C8.33903 10.7013 6.87322 12.1672 6.87322 13.9696C6.87322 15.7721 8.33903 17.2379 10.1415 17.2379C11.9439 17.2379 13.4097 15.7721 13.4097 13.9696C13.4097 12.1672 11.9439 10.7013 10.1415 10.7013Z"
        fill="#1D1D1B" />
    <path
        d="M10.1415 15.8061C9.52432 15.8061 9.02637 15.3081 9.02637 14.6909H9.72771C9.72771 14.9224 9.91707 15.1047 10.1415 15.1047C10.3729 15.1047 10.5553 14.9154 10.5553 14.6909C10.5553 14.4595 10.3659 14.2771 10.1415 14.2771C9.52432 14.2771 9.02637 13.7792 9.02637 13.162C9.02637 12.5448 9.52432 12.0469 10.1415 12.0469C10.7587 12.0469 11.2566 12.5448 11.2566 13.162H10.5553C10.5553 12.9306 10.3659 12.7482 10.1415 12.7482C9.91006 12.7482 9.72771 12.9376 9.72771 13.162C9.72771 13.3864 9.91707 13.5758 10.1415 13.5758C10.7587 13.5758 11.2566 14.0738 11.2566 14.6909C11.2637 15.3081 10.7587 15.8061 10.1415 15.8061Z"
        fill="#1D1D1B" />
    <path d="M10.4924 11.6484H9.79102V12.3989H10.4924V11.6484Z" fill="#1D1D1B" />
    <path d="M10.4924 15.5391H9.79102V16.2895H10.4924V15.5391Z" fill="#1D1D1B" />
</svg>
