<svg width="24" height="24" viewBox="0 0 24 24" fill="currentColor" xmlns="http://www.w3.org/2000/svg">
    <g id="Group">
        <g id="Group_2">
            <path id="Vector"
                d="M12.021 23.63C5.58484 23.63 0.348145 18.3942 0.348145 11.958C0.348145 5.52186 5.58396 0.285156 12.021 0.285156C18.4581 0.285156 23.693 5.52186 23.693 11.958C23.693 18.3942 18.4572 23.63 12.021 23.63ZM12.021 1.25247C6.11775 1.25247 1.31546 6.05476 1.31546 11.958C1.31546 17.8613 6.11775 22.6636 12.021 22.6636C17.9234 22.6636 22.7266 17.8613 22.7266 11.958C22.7266 6.05476 17.9234 1.25247 12.021 1.25247Z" />
        </g>
        <g id="Group_3">
            <path id="Vector_2"
                d="M12.0211 12.4413C11.898 12.4413 11.7758 12.3947 11.6817 12.3023L9.17721 9.83217C8.98727 9.64486 8.98463 9.33795 9.17282 9.14801C9.36012 8.95806 9.66703 8.95543 9.85697 9.14361L12.0167 11.2743L16.6159 6.61276C16.8041 6.42281 17.1101 6.42018 17.3 6.60836C17.49 6.79567 17.4926 7.10257 17.3044 7.29252L12.3658 12.2988C12.2709 12.3938 12.146 12.4413 12.0211 12.4413Z" />
        </g>
        <g id="Group_4">
            <g id="Group_5">
                <path id="Vector_3"
                    d="M11.9973 3.01123C11.73 3.01123 11.5137 2.7949 11.5137 2.52757V0.768814C11.5137 0.501483 11.73 0.285156 11.9973 0.285156C12.2647 0.285156 12.481 0.501483 12.481 0.768814V2.52757C12.481 2.79402 12.2647 3.01123 11.9973 3.01123Z" />
            </g>
            <g id="Group_6">
                <path id="Vector_4"
                    d="M11.9973 23.6284C11.73 23.6284 11.5137 23.4121 11.5137 23.1448V21.386C11.5137 21.1187 11.73 20.9023 11.9973 20.9023C12.2647 20.9023 12.481 21.1187 12.481 21.386V23.1448C12.481 23.4121 12.2647 23.6284 11.9973 23.6284Z" />
            </g>
            <g id="Group_7">
                <path id="Vector_5"
                    d="M2.56761 12.44H0.808854C0.541522 12.44 0.325195 12.2236 0.325195 11.9563C0.325195 11.689 0.541522 11.4727 0.808854 11.4727H2.56761C2.83494 11.4727 3.05127 11.689 3.05127 11.9563C3.05127 12.2236 2.83406 12.44 2.56761 12.44Z" />
            </g>
            <g id="Group_8">
                <path id="Vector_6"
                    d="M23.1863 12.44H21.4275C21.1602 12.44 20.9438 12.2236 20.9438 11.9563C20.9438 11.689 21.1602 11.4727 21.4275 11.4727H23.1863C23.4536 11.4727 23.6699 11.689 23.6699 11.9563C23.6699 12.2236 23.4536 12.44 23.1863 12.44Z" />
            </g>
            <g id="Group_9">
                <path id="Vector_7"
                    d="M7.28274 4.27527C7.11566 4.27527 6.95297 4.18822 6.86328 4.03345L5.9839 2.51036C5.85023 2.27909 5.92938 1.98361 6.16153 1.84995C6.39281 1.71628 6.68916 1.79631 6.82195 2.0267L7.70132 3.54979C7.83499 3.78106 7.75585 4.07654 7.52369 4.2102C7.44806 4.25505 7.36452 4.27527 7.28274 4.27527Z" />
            </g>
            <g id="Group_10">
                <path id="Vector_8"
                    d="M17.5928 22.1307C17.4257 22.1307 17.2631 22.0437 17.1734 21.8889L16.294 20.3658C16.1603 20.1346 16.2395 19.8391 16.4707 19.7054C16.702 19.5718 16.9984 19.6518 17.1312 19.8822L18.0105 21.4053C18.1442 21.6365 18.0651 21.932 17.8338 22.0657C17.7582 22.1096 17.6746 22.1307 17.5928 22.1307Z" />
            </g>
            <g id="Group_11">
                <path id="Vector_9"
                    d="M2.30818 18.0341C2.1411 18.0341 1.97841 17.947 1.88872 17.7923C1.75505 17.561 1.83419 17.2655 2.06547 17.1319L3.58855 16.2525C3.81983 16.1188 4.11618 16.198 4.24897 16.4292C4.38263 16.6605 4.30349 16.956 4.07221 17.0897L2.54913 17.969C2.4735 18.0139 2.38996 18.0341 2.30818 18.0341Z" />
            </g>
            <g id="Group_12">
                <path id="Vector_10"
                    d="M20.1646 7.72532C19.9975 7.72532 19.8349 7.63826 19.7452 7.48349C19.6115 7.25221 19.6906 6.95674 19.9219 6.82308L21.445 5.9437C21.6763 5.81003 21.9726 5.89006 22.1054 6.12045C22.2391 6.35173 22.1599 6.6472 21.9287 6.78087L20.4056 7.66025C20.3299 7.70509 20.2464 7.72532 20.1646 7.72532Z" />
            </g>
            <g id="Group_13">
                <path id="Vector_11"
                    d="M3.83038 7.7259C3.7486 7.7259 3.66506 7.7048 3.58943 7.66083L2.06635 6.78145C1.83507 6.64778 1.75505 6.35231 1.88959 6.12104C2.02238 5.88976 2.31961 5.80974 2.55001 5.94428L4.07309 6.82366C4.30437 6.95733 4.38439 7.2528 4.24985 7.48407C4.16015 7.63972 3.99746 7.7259 3.83038 7.7259Z" />
            </g>
            <g id="Group_14">
                <path id="Vector_12"
                    d="M21.6868 18.0345C21.605 18.0345 21.5215 18.0134 21.4459 17.9694L19.9228 17.09C19.6915 16.9564 19.6115 16.6609 19.746 16.4296C19.8788 16.1984 20.1761 16.1183 20.4065 16.2529L21.9295 17.1323C22.1608 17.2659 22.2408 17.5614 22.1063 17.7927C22.0166 17.9483 21.8539 18.0345 21.6868 18.0345Z" />
            </g>
            <g id="Group_15">
                <path id="Vector_13"
                    d="M6.40251 22.1313C6.32073 22.1313 6.23719 22.1102 6.16156 22.0663C5.93029 21.9326 5.85026 21.6371 5.98481 21.4058L6.86419 19.8828C6.99697 19.6515 7.2942 19.5715 7.5246 19.706C7.75588 19.8397 7.8359 20.1351 7.70136 20.3664L6.82198 21.8895C6.73228 22.0443 6.5696 22.1313 6.40251 22.1313Z" />
            </g>
            <g id="Group_16">
                <path id="Vector_14"
                    d="M16.7124 4.27586C16.6306 4.27586 16.547 4.25475 16.4714 4.21078C16.2401 4.07712 16.1601 3.78165 16.2938 3.55037L17.1731 2.02729C17.3068 1.79601 17.6032 1.71599 17.8336 1.85053C18.0648 1.9842 18.1449 2.27967 18.0112 2.51094L17.1318 4.03403C17.0421 4.18968 16.8794 4.27586 16.7124 4.27586Z" />
            </g>
        </g>
    </g>
</svg>
