<svg
  width="24"
  height="24"
  viewBox="0 0 24 24"
  fill="currentColor"
  xmlns="http://www.w3.org/2000/svg"
>
  <path
    d="M17.8092 11.0459H16.7014C16.5264 11.0459 16.3843 11.188 16.3843 11.363V12.4709C16.3843 12.6459 16.5264 12.788 16.7014 12.788H17.8092C17.9843 12.788 18.1263 12.6459 18.1263 12.4709V11.363C18.1263 11.1876 17.9843 11.0459 17.8092 11.0459Z"
  />
  <path
    d="M14.3529 11.0459H13.2451C13.0701 11.0459 12.928 11.188 12.928 11.363V12.4709C12.928 12.6459 13.0701 12.788 13.2451 12.788H14.3529C14.528 12.788 14.67 12.6459 14.67 12.4709V11.363C14.67 11.1876 14.528 11.0459 14.3529 11.0459Z"
  />
  <path
    d="M10.8964 11.0459H9.78854C9.61353 11.0459 9.47144 11.188 9.47144 11.363V12.4709C9.47144 12.6459 9.61353 12.788 9.78854 12.788H10.8964C11.0714 12.788 11.2135 12.6459 11.2135 12.4709V11.363C11.2135 11.1876 11.0714 11.0459 10.8964 11.0459Z"
  />
  <path
    d="M17.8092 14.5024H16.7014C16.5264 14.5024 16.3843 14.6445 16.3843 14.8195V15.9274C16.3843 16.1024 16.5264 16.2445 16.7014 16.2445H17.8092C17.9843 16.2445 18.1263 16.1024 18.1263 15.9274V14.8195C18.1263 14.6441 17.9843 14.5024 17.8092 14.5024Z"
  />
  <path
    d="M14.3529 14.5024H13.2451C13.0701 14.5024 12.928 14.6445 12.928 14.8195V15.9274C12.928 16.1024 13.0701 16.2445 13.2451 16.2445H14.3529C14.528 16.2445 14.67 16.1024 14.67 15.9274V14.8195C14.67 14.6441 14.528 14.5024 14.3529 14.5024Z"
  />
  <path
    d="M10.8964 14.5024H9.78854C9.61353 14.5024 9.47144 14.6445 9.47144 14.8195V15.9274C9.47144 16.1024 9.61353 16.2445 9.78854 16.2445H10.8964C11.0714 16.2445 11.2135 16.1024 11.2135 15.9274V14.8195C11.2135 14.6441 11.0714 14.5024 10.8964 14.5024Z"
  />
  <path
    d="M7.4401 14.5024H6.33224C6.15723 14.5024 6.01514 14.6445 6.01514 14.8195V15.9274C6.01514 16.1024 6.15723 16.2445 6.33224 16.2445H7.4401C7.61511 16.2445 7.7572 16.1024 7.7572 15.9274V14.8195C7.7572 14.6441 7.61511 14.5024 7.4401 14.5024Z"
  />
  <path
    d="M17.8092 17.9585H16.7014C16.5264 17.9585 16.3843 18.1006 16.3843 18.2756V19.3835C16.3843 19.5585 16.5264 19.7006 16.7014 19.7006H17.8092C17.9843 19.7006 18.1263 19.5585 18.1263 19.3835V18.2756C18.1263 18.1002 17.9843 17.9585 17.8092 17.9585Z"
  />
  <path
    d="M14.3529 17.9585H13.2451C13.0701 17.9585 12.928 18.1006 12.928 18.2756V19.3835C12.928 19.5585 13.0701 19.7006 13.2451 19.7006H14.3529C14.528 19.7006 14.67 19.5585 14.67 19.3835V18.2756C14.67 18.1002 14.528 17.9585 14.3529 17.9585Z"
  />
  <path
    d="M10.8964 17.9585H9.78854C9.61353 17.9585 9.47144 18.1006 9.47144 18.2756V19.3835C9.47144 19.5585 9.61353 19.7006 9.78854 19.7006H10.8964C11.0714 19.7006 11.2135 19.5585 11.2135 19.3835V18.2756C11.2135 18.1002 11.0714 17.9585 10.8964 17.9585Z"
  />
  <path
    d="M7.4401 17.9585H6.33224C6.15723 17.9585 6.01514 18.1006 6.01514 18.2756V19.3835C6.01514 19.5585 6.15723 19.7006 6.33224 19.7006H7.4401C7.61511 19.7006 7.7572 19.5585 7.7572 19.3835V18.2756C7.7572 18.1002 7.61511 17.9585 7.4401 17.9585Z"
  />
  <path
    d="M19.4916 2.42779H19.4804V1.76749C19.4804 1.04698 18.8943 0.460938 18.1738 0.460938H17.5203C16.7998 0.460938 16.2138 1.04698 16.2138 1.76749V2.42779H7.92731V1.76749C7.92731 1.04698 7.34127 0.460938 6.62076 0.460938H5.96729C5.24678 0.460938 4.66074 1.04698 4.66074 1.76749V2.42779H4.6495C2.57427 2.42779 0.885986 4.11607 0.885986 6.1913V19.6084C0.885986 21.6837 2.57427 23.3719 4.6495 23.3719H19.4908C21.566 23.3719 23.2543 21.6837 23.2543 19.6084V6.1913C23.2551 4.11607 21.5668 2.42779 19.4916 2.42779ZM17.0832 1.76749C17.0832 1.52625 17.2795 1.33037 17.5203 1.33037H18.1738C18.415 1.33037 18.6109 1.52665 18.6109 1.76749V3.95752C18.6109 4.19876 18.4146 4.39464 18.1738 4.39464H17.5203C17.2791 4.39464 17.0832 4.19836 17.0832 3.95752V1.76749ZM5.53057 1.76749C5.53057 1.52625 5.72685 1.33037 5.96769 1.33037H6.62116C6.8624 1.33037 7.05829 1.52665 7.05829 1.76749V3.95752C7.05829 4.19876 6.862 4.39464 6.62116 4.39464H5.96769C5.72645 4.39464 5.53057 4.19836 5.53057 3.95752V1.76749ZM4.6499 3.29722H4.66114V3.95752C4.66114 4.67803 5.24718 5.26407 5.96769 5.26407H6.62116C7.34167 5.26407 7.92772 4.67803 7.92772 3.95752V3.29722H16.2142V3.95752C16.2142 4.67803 16.8002 5.26407 17.5207 5.26407H18.1742C18.8947 5.26407 19.4808 4.67803 19.4808 3.95752V3.29722H19.492C21.088 3.29722 22.3861 4.59574 22.3861 6.1913V7.58214H1.75582V6.1913C1.75582 4.59534 3.05434 3.29722 4.6499 3.29722ZM19.4916 22.5029H4.6499C3.05394 22.5029 1.75582 21.2044 1.75582 19.6088V8.45157H22.3857V19.6084C22.3857 21.2044 21.0876 22.5029 19.4916 22.5029Z"
  />
</svg>
