<svg width="16" height="24" viewBox="0 0 16 24" fill="currentColor" xmlns="http://www.w3.org/2000/svg">
    <g id="career-place" clip-path="url(#clip0_621_12558)">
        <g id="Group">
            <g id="Group_2">
                <path id="Vector"
                    d="M8.07076 21.3595C7.93498 21.3595 7.80632 21.2987 7.72016 21.1939C7.70823 21.1793 6.49989 19.7073 5.10768 17.7308C3.23333 15.0701 1.93036 12.8045 1.23455 10.9965C0.821253 10.0517 0.611816 9.04563 0.611816 8.00633C0.611816 6.99934 0.808944 6.02197 1.19762 5.10191C1.57303 4.2132 2.11057 3.41508 2.79503 2.72965C3.47969 2.04422 4.27724 1.50591 5.16538 1.12993C6.08524 0.740481 7.06242 0.542969 8.06941 0.542969C9.0764 0.542969 10.0538 0.740481 10.9742 1.12993C11.8629 1.50591 12.661 2.04403 13.3463 2.72945C14.0317 3.41488 14.5698 4.21282 14.9458 5.10153C15.3353 6.02197 15.5328 6.99915 15.5328 8.00633C15.5328 9.04101 15.3247 10.043 14.9145 10.9842C14.2202 12.7926 12.9163 15.0604 11.0388 17.7252C9.64432 19.7046 8.43328 21.1795 8.42136 21.1941C8.3352 21.2989 8.20653 21.3595 8.07076 21.3595ZM8.06941 1.45091C4.45783 1.45091 1.51957 4.39168 1.51957 8.00633C1.51957 8.92293 1.70477 9.80952 2.06999 10.6415C2.07287 10.648 2.07556 10.6546 2.07806 10.6613C2.73618 12.3753 4.03896 14.6369 5.84561 17.2025C6.77279 18.5191 7.6165 19.6078 8.07056 20.181C8.5254 19.6073 9.37122 18.516 10.3003 17.1967C12.1099 14.6277 13.4134 12.3639 14.07 10.6498C14.0725 10.6432 14.0752 10.6367 14.0781 10.6302C14.4406 9.80145 14.6244 8.9187 14.6244 8.00633C14.6248 4.39148 11.6843 1.45091 8.06941 1.45091Z" />
            </g>
            <g id="Group_3">
                <path id="Vector_2"
                    d="M8.06969 12.3185C6.91884 12.3185 5.83724 11.87 5.02372 11.0557C4.20982 10.2409 3.76172 9.15733 3.76172 8.00476C3.76172 6.85219 4.20982 5.76885 5.02372 4.95418C5.83704 4.1399 6.91884 3.69141 8.06969 3.69141C9.2213 3.69141 10.3043 4.14028 11.1193 4.95514C11.9344 5.77019 12.383 6.85315 12.383 8.00476C12.383 10.3834 10.4481 12.3185 8.06969 12.3185ZM8.06969 4.59935C7.16155 4.59935 6.30784 4.95322 5.66607 5.59576C5.02353 6.23907 4.66966 7.09451 4.66966 8.00476C4.66966 8.91501 5.02353 9.77064 5.66626 10.4141C6.30823 11.0569 7.16174 11.4107 8.06988 11.4107C9.94769 11.4107 11.4755 9.88296 11.4755 8.00495C11.4755 7.09586 11.121 6.2408 10.4775 5.5973C9.83384 4.95379 8.97878 4.59935 8.06969 4.59935Z" />
            </g>
            <g id="Group_4">
                <path id="Vector_3"
                    d="M8.07211 23.4955C6.15699 23.4955 4.34957 23.1703 2.98275 22.5799C1.49477 21.9372 0.675293 21.036 0.675293 20.0424C0.675293 19.472 0.95358 18.9152 1.47996 18.4321C1.94537 18.005 2.59253 17.6365 3.40354 17.3369C3.63856 17.2499 3.89973 17.3701 3.98666 17.6054C4.07359 17.8406 3.95339 18.1015 3.71818 18.1885C2.38117 18.6825 1.58304 19.3757 1.58304 20.0424C1.58304 20.6423 2.22443 21.2633 3.34258 21.7464C4.59843 22.2889 6.27796 22.5876 8.07192 22.5876C9.86588 22.5876 11.5456 22.2889 12.8015 21.7464C13.9198 21.2633 14.561 20.6423 14.561 20.0424C14.561 19.3757 13.7629 18.6825 12.4259 18.1885C12.1906 18.1015 12.0704 17.8406 12.1574 17.6054C12.2443 17.3701 12.5053 17.2499 12.7405 17.3369C13.5513 17.6365 14.1987 18.0052 14.6641 18.4321C15.1905 18.9152 15.4687 19.472 15.4687 20.0424C15.4687 21.036 14.6493 21.937 13.1613 22.5799C11.7947 23.1703 9.98724 23.4955 8.07211 23.4955Z" />
            </g>
        </g>
    </g>
    <defs>
        <clipPath id="clip0_621_12558">
            <rect width="15.9178" height="24" />
        </clipPath>
    </defs>
</svg>
