<svg width="24" height="17" viewBox="0 0 24 17" fill="currentColor" xmlns="http://www.w3.org/2000/svg">
    <g id="career-salary">
        <g id="Group">
            <g id="Group_2">
                <path id="Vector" d="M23.1938 11.1813H22.4925V1.43963H4.79053V0.738281H23.1938V11.1813Z" />
            </g>
            <g id="Group_3">
                <path id="Vector_2" d="M21.3841 12.9821H20.6827V3.24041H2.98779V2.53906H21.3841V12.9821Z" />
            </g>
            <g id="Group_4">
                <path id="Vector_3"
                    d="M19.5817 15.5933H0.708496V4.34375H19.5817V15.5933ZM1.40984 14.892H18.8803V5.04509H1.40984V14.892Z" />
            </g>
            <g id="Group_5">
                <path id="Vector_4" d="M16.5449 9.61719H15.6401V10.3185H16.5449V9.61719Z" />
            </g>
            <g id="Group_6">
                <path id="Vector_5" d="M4.78315 9.61719H3.87842V10.3185H4.78315V9.61719Z" />
            </g>
            <g id="Group_7">
                <path id="Vector_6"
                    d="M19.0628 8.26941L16.8466 7.07713L15.6543 4.86088L16.2715 4.53125L17.3656 6.55814L19.3995 7.65223L19.0628 8.26941Z" />
            </g>
            <g id="Group_8">
                <path id="Vector_7"
                    d="M1.22727 8.26941L0.890625 7.65223L2.92452 6.55814L4.01862 4.53125L4.6358 4.86088L3.44352 7.07713L1.22727 8.26941Z" />
            </g>
            <g id="Group_9">
                <path id="Vector_8"
                    d="M4.01862 15.4022L2.92452 13.3753L0.890625 12.2812L1.22727 11.6641L3.44352 12.8563L4.6358 15.0726L4.01862 15.4022Z" />
            </g>
            <g id="Group_10">
                <path id="Vector_9"
                    d="M16.2715 15.4022L15.6543 15.0726L16.8466 12.8563L19.0628 11.6641L19.3995 12.2812L17.3656 13.3753L16.2715 15.4022Z" />
            </g>
            <g id="Group_11">
                <g id="Group_12">
                    <path id="Vector_10"
                        d="M10.1415 13.9392C7.95329 13.9392 6.17188 12.1578 6.17188 9.96961C6.17188 7.78141 7.95329 6 10.1415 6C12.3297 6 14.1111 7.78141 14.1111 9.96961C14.1111 12.1578 12.3367 13.9392 10.1415 13.9392ZM10.1415 6.70134C8.33903 6.70134 6.87322 8.16715 6.87322 9.96961C6.87322 11.7721 8.33903 13.2379 10.1415 13.2379C11.9439 13.2379 13.4097 11.7721 13.4097 9.96961C13.4097 8.16715 11.9439 6.70134 10.1415 6.70134Z" />
                </g>
                <g id="Group_13">
                    <g id="Group_14">
                        <path id="Vector_11"
                            d="M10.1415 11.8061C9.52432 11.8061 9.02637 11.3081 9.02637 10.6909H9.72771C9.72771 10.9224 9.91707 11.1047 10.1415 11.1047C10.3729 11.1047 10.5553 10.9154 10.5553 10.6909C10.5553 10.4595 10.3659 10.2771 10.1415 10.2771C9.52432 10.2771 9.02637 9.7792 9.02637 9.16201C9.02637 8.54483 9.52432 8.04688 10.1415 8.04688C10.7587 8.04688 11.2566 8.54483 11.2566 9.16201H10.5553C10.5553 8.93057 10.3659 8.74822 10.1415 8.74822C9.91006 8.74822 9.72771 8.93758 9.72771 9.16201C9.72771 9.38644 9.91707 9.5758 10.1415 9.5758C10.7587 9.5758 11.2566 10.0738 11.2566 10.6909C11.2637 11.3081 10.7587 11.8061 10.1415 11.8061Z" />
                    </g>
                    <g id="Group_15">
                        <path id="Vector_12" d="M10.4924 7.64844H9.79102V8.39888H10.4924V7.64844Z" />
                    </g>
                    <g id="Group_16">
                        <path id="Vector_13" d="M10.4924 11.5391H9.79102V12.2895H10.4924V11.5391Z" />
                    </g>
                </g>
            </g>
        </g>
    </g>
</svg>
