<svg width="24" height="24" viewBox="0 0 24 24" fill="none" xmlns="http://www.w3.org/2000/svg">
    <g clip-path="url(#clip0_621_12414)">
        <path
            d="M12.0708 21.3595C11.935 21.3595 11.8063 21.2987 11.7202 21.1939C11.7082 21.1793 10.4999 19.7073 9.10768 17.7308C7.23333 15.0701 5.93036 12.8045 5.23455 10.9965C4.82125 10.0517 4.61182 9.04563 4.61182 8.00633C4.61182 6.99934 4.80894 6.02197 5.19762 5.10191C5.57303 4.2132 6.11057 3.41508 6.79503 2.72965C7.47969 2.04422 8.27724 1.50591 9.16538 1.12993C10.0852 0.740481 11.0624 0.542969 12.0694 0.542969C13.0764 0.542969 14.0538 0.740481 14.9742 1.12993C15.8629 1.50591 16.661 2.04403 17.3463 2.72945C18.0317 3.41488 18.5698 4.21282 18.9458 5.10153C19.3353 6.02197 19.5328 6.99915 19.5328 8.00633C19.5328 9.04101 19.3247 10.043 18.9145 10.9842C18.2202 12.7926 16.9163 15.0604 15.0388 17.7252C13.6443 19.7046 12.4333 21.1795 12.4214 21.1941C12.3352 21.2989 12.2065 21.3595 12.0708 21.3595ZM12.0694 1.45091C8.45783 1.45091 5.51957 4.39168 5.51957 8.00633C5.51957 8.92293 5.70477 9.80952 6.06999 10.6415C6.07287 10.648 6.07556 10.6546 6.07806 10.6613C6.73618 12.3753 8.03896 14.6369 9.84561 17.2025C10.7728 18.5191 11.6165 19.6078 12.0706 20.181C12.5254 19.6073 13.3712 18.516 14.3003 17.1967C16.1099 14.6277 17.4134 12.3639 18.07 10.6498C18.0725 10.6432 18.0752 10.6367 18.0781 10.6302C18.4406 9.80145 18.6244 8.9187 18.6244 8.00633C18.6248 4.39148 15.6843 1.45091 12.0694 1.45091Z"
            fill="black" />
        <path
            d="M12.0697 12.3185C10.9188 12.3185 9.83724 11.87 9.02372 11.0557C8.20982 10.2409 7.76172 9.15733 7.76172 8.00476C7.76172 6.85219 8.20982 5.76885 9.02372 4.95418C9.83704 4.1399 10.9188 3.69141 12.0697 3.69141C13.2213 3.69141 14.3043 4.14028 15.1193 4.95514C15.9344 5.77019 16.383 6.85315 16.383 8.00476C16.383 10.3834 14.4481 12.3185 12.0697 12.3185ZM12.0697 4.59935C11.1616 4.59935 10.3078 4.95322 9.66607 5.59576C9.02353 6.23907 8.66966 7.09451 8.66966 8.00476C8.66966 8.91501 9.02353 9.77064 9.66626 10.4141C10.3082 11.0569 11.1617 11.4107 12.0699 11.4107C13.9477 11.4107 15.4755 9.88296 15.4755 8.00495C15.4755 7.09586 15.121 6.2408 14.4775 5.5973C13.8338 4.95379 12.9788 4.59935 12.0697 4.59935Z"
            fill="black" />
        <path
            d="M12.0721 23.4955C10.157 23.4955 8.34957 23.1703 6.98275 22.5799C5.49477 21.9372 4.67529 21.036 4.67529 20.0424C4.67529 19.472 4.95358 18.9152 5.47996 18.4321C5.94537 18.005 6.59253 17.6365 7.40354 17.3369C7.63856 17.2499 7.89973 17.3701 7.98666 17.6054C8.07359 17.8406 7.95339 18.1015 7.71818 18.1885C6.38117 18.6825 5.58304 19.3757 5.58304 20.0424C5.58304 20.6423 6.22443 21.2633 7.34258 21.7464C8.59843 22.2889 10.278 22.5876 12.0719 22.5876C13.8659 22.5876 15.5456 22.2889 16.8015 21.7464C17.9198 21.2633 18.561 20.6423 18.561 20.0424C18.561 19.3757 17.7629 18.6825 16.4259 18.1885C16.1906 18.1015 16.0704 17.8406 16.1574 17.6054C16.2443 17.3701 16.5053 17.2499 16.7405 17.3369C17.5513 17.6365 18.1987 18.0052 18.6641 18.4321C19.1905 18.9152 19.4687 19.472 19.4687 20.0424C19.4687 21.036 18.6493 21.937 17.1613 22.5799C15.7947 23.1703 13.9872 23.4955 12.0721 23.4955Z"
            fill="black" />
    </g>
    <defs>
        <clipPath id="clip0_621_12414">
            <rect width="15.9178" height="24" fill="white" transform="translate(4)" />
        </clipPath>
    </defs>
</svg>
