<svg
  width="24"
  height="24"
  viewBox="0 0 24 24"
  fill="currentColor"
  xmlns="http://www.w3.org/2000/svg"
>
  <path
    d="M20.7273 0H3.27273C2.40475 0 1.57232 0.344804 0.95856 0.95856C0.344804 1.57232 0 2.40475 0 3.27273L0 20.7273C0 21.5953 0.344804 22.4277 0.95856 23.0414C1.57232 23.6552 2.40475 24 3.27273 24H20.7273C21.5953 24 22.4277 23.6552 23.0414 23.0414C23.6552 22.4277 24 21.5953 24 20.7273V3.27273C24 2.40475 23.6552 1.57232 23.0414 0.95856C22.4277 0.344804 21.5953 0 20.7273 0ZM8.18182 18.9927C8.182 19.0593 8.16904 19.1252 8.1437 19.1867C8.11836 19.2483 8.08112 19.3042 8.03412 19.3513C7.98713 19.3985 7.9313 19.4359 7.86983 19.4614C7.80836 19.4869 7.74246 19.5 7.67591 19.5H5.52C5.45333 19.5002 5.38729 19.4872 5.32566 19.4618C5.26404 19.4363 5.20804 19.399 5.1609 19.3518C5.11376 19.3047 5.0764 19.2487 5.05097 19.1871C5.02555 19.1254 5.01255 19.0594 5.01273 18.9927V9.95455C5.01273 9.82001 5.06617 9.69098 5.1613 9.59585C5.25644 9.50072 5.38546 9.44727 5.52 9.44727H7.67591C7.81021 9.44763 7.93889 9.50124 8.03372 9.59633C8.12856 9.69142 8.18182 9.82024 8.18182 9.95455V18.9927ZM6.59727 8.59091C6.19272 8.59091 5.79725 8.47095 5.46088 8.24619C5.12451 8.02143 4.86234 7.70197 4.70752 7.32822C4.5527 6.95446 4.5122 6.54319 4.59112 6.14641C4.67005 5.74963 4.86486 5.38516 5.15092 5.0991C5.43698 4.81304 5.80145 4.61823 6.19822 4.5393C6.595 4.46038 7.00628 4.50089 7.38003 4.6557C7.75379 4.81052 8.07325 5.07269 8.29801 5.40906C8.52276 5.74543 8.64273 6.1409 8.64273 6.54545C8.64273 7.08794 8.42723 7.60821 8.04363 7.99181C7.66003 8.37541 7.13976 8.59091 6.59727 8.59091ZM19.4509 19.0282C19.4511 19.0895 19.4391 19.1502 19.4158 19.2069C19.3924 19.2635 19.3581 19.315 19.3147 19.3584C19.2714 19.4017 19.2199 19.436 19.1632 19.4594C19.1066 19.4828 19.0458 19.4947 18.9845 19.4945H16.6664C16.6051 19.4947 16.5443 19.4828 16.4877 19.4594C16.431 19.436 16.3795 19.4017 16.3362 19.3584C16.2929 19.315 16.2585 19.2635 16.2351 19.2069C16.2118 19.1502 16.1998 19.0895 16.2 19.0282V14.7941C16.2 14.1614 16.3855 12.0232 14.5459 12.0232C13.1209 12.0232 12.8305 13.4864 12.7732 14.1436V19.0336C12.7732 19.1562 12.725 19.2738 12.639 19.361C12.553 19.4483 12.4361 19.4982 12.3136 19.5H10.0745C10.0134 19.5 9.95279 19.4879 9.89628 19.4645C9.83978 19.441 9.78846 19.4066 9.74526 19.3633C9.70206 19.32 9.66784 19.2686 9.64455 19.212C9.62126 19.1554 9.60937 19.0948 9.60955 19.0336V9.915C9.60937 9.85382 9.62126 9.79321 9.64455 9.73663C9.66784 9.68006 9.70206 9.62864 9.74526 9.58531C9.78846 9.54199 9.83978 9.50762 9.89628 9.48416C9.95279 9.46071 10.0134 9.44864 10.0745 9.44864H12.3136C12.4373 9.44864 12.5559 9.49777 12.6434 9.58523C12.7309 9.67269 12.78 9.79131 12.78 9.915V10.7032C13.3091 9.90818 14.0932 9.29727 15.7664 9.29727C19.4727 9.29727 19.4482 12.7582 19.4482 14.6591L19.4509 19.0282Z"
  />
</svg>
