<svg
  width="32"
  height="32"
  viewBox="0 0 32 32"
  fill="currentColor"
  xmlns="http://www.w3.org/2000/svg"
>
  <path
    d="M16 0C12.8355 0 9.74207 0.938384 7.11088 2.69649C4.4797 4.45459 2.42894 6.95345 1.21793 9.87707C0.00693251 12.8007 -0.309921 16.0177 0.307443 19.1214C0.924806 22.2251 2.44866 25.0761 4.6863 27.3137C6.92394 29.5513 9.77487 31.0752 12.8786 31.6926C15.9823 32.3099 19.1993 31.9931 22.1229 30.7821C25.0466 29.5711 27.5454 27.5203 29.3035 24.8891C31.0616 22.2579 32 19.1645 32 16C32 11.7565 30.3143 7.68687 27.3137 4.68629C24.3131 1.68571 20.2435 0 16 0ZM20.0547 14.4842L19.7895 16.7137C19.778 16.8171 19.7287 16.9127 19.6509 16.9819C19.5732 17.0511 19.4725 17.0891 19.3684 17.0884H17.0526V23.6989C17.0532 23.7779 17.0225 23.8538 16.9673 23.9102C16.9121 23.9666 16.8368 23.9989 16.7579 24H14.4C14.3607 23.9995 14.322 23.9912 14.2859 23.9756C14.2499 23.9601 14.2172 23.9376 14.1898 23.9095C14.1625 23.8813 14.1409 23.8481 14.1264 23.8116C14.1119 23.7751 14.1047 23.7361 14.1053 23.6968L14.1179 17.0884H12.3642C12.2525 17.0884 12.1455 17.0441 12.0665 16.9651C11.9875 16.8861 11.9432 16.779 11.9432 16.6674V14.44C11.9432 14.3283 11.9875 14.2212 12.0665 14.1423C12.1455 14.0633 12.2525 14.0189 12.3642 14.0189H14.1053V11.8589C14.1053 9.36 15.5937 8 17.7684 8H19.5516C19.6633 8 19.7704 8.04436 19.8493 8.12332C19.9283 8.20229 19.9726 8.30938 19.9726 8.42105V10.2968C19.9726 10.4085 19.9283 10.5156 19.8493 10.5946C19.7704 10.6735 19.6633 10.7179 19.5516 10.7179H18.459C17.2758 10.7368 17.0526 11.3032 17.0526 12.1495V14.0126H19.6463C19.7051 14.014 19.7629 14.0276 19.816 14.0526C19.8692 14.0776 19.9166 14.1135 19.955 14.1579C19.9935 14.2023 20.0222 14.2543 20.0394 14.3105C20.0566 14.3667 20.0618 14.4259 20.0547 14.4842Z"
  />
</svg>
