<svg
  width="33"
  height="32"
  viewBox="0 0 33 32"
  fill="currentColor"
  xmlns="http://www.w3.org/2000/svg"
>
  <path
    d="M16.5 0C7.66479 0 0.5 7.16479 0.5 16C0.5 24.8352 7.66479 32 16.5 32C25.3352 32 32.5 24.8352 32.5 16C32.5 7.16479 25.3352 0 16.5 0ZM11.8506 24.1875H7.95386V12.4641H11.8506V24.1875ZM9.90234 10.8633H9.87695C8.56934 10.8633 7.72363 9.96313 7.72363 8.83813C7.72363 7.68774 8.59521 6.8125 9.92822 6.8125C11.2612 6.8125 12.0815 7.68774 12.1069 8.83813C12.1069 9.96313 11.2612 10.8633 9.90234 10.8633ZM25.9014 24.1875H22.0051V17.9158C22.0051 16.3396 21.4409 15.2646 20.031 15.2646C18.9546 15.2646 18.3135 15.9897 18.0317 16.6897C17.9287 16.9402 17.9036 17.2903 17.9036 17.6406V24.1875H14.0071C14.0071 24.1875 14.0581 13.564 14.0071 12.4641H17.9036V14.124C18.4214 13.3252 19.3479 12.189 21.4153 12.189C23.979 12.189 25.9014 13.8645 25.9014 17.4653V24.1875Z"
  />
</svg>
