<svg width="696" height="426" viewBox="0 0 696 426" fill="none" xmlns="http://www.w3.org/2000/svg">
<path fill-rule="evenodd" clip-rule="evenodd" d="M341.603 122.5C353.4 85.575 377.019 51.4125 412.6 36.0671C446.179 21.5849 486.231 27.7892 517.578 46.6041C543.681 62.2712 541.651 99.1107 559.153 124.028C582.269 156.938 636.034 172.394 634.16 212.581C632.237 253.817 588.724 281.078 551.045 297.907C515.815 313.642 476.582 310.822 439.733 299.419C402.949 288.035 367.611 269.041 348.928 235.358C329.924 201.095 329.675 159.834 341.603 122.5Z" fill="#FCF0D6"/>
<path fill-rule="evenodd" clip-rule="evenodd" d="M268.628 94.9948C296.155 107.06 314.564 129.02 334.224 151.769C361.729 183.597 409.38 209.594 403.724 251.32C397.998 293.566 346.299 308.653 309.948 330.87C272.106 353.999 233.351 396.82 192.08 380.675C150.924 364.575 161.343 302.839 139.699 264.271C118.585 226.647 63.7118 204.506 69.1832 161.68C74.7559 118.06 121.962 90.9267 163.625 76.9966C198.652 65.2853 234.816 80.1751 268.628 94.9948Z" fill="#F9E1AE"/>
<path fill-rule="evenodd" clip-rule="evenodd" d="M137.65 120.439C139.136 118.226 141.627 116.898 144.292 116.898H197.03C201.448 116.898 205.03 120.48 205.03 124.898V242.37H225.325C229.744 242.37 233.325 245.952 233.325 250.37V278.373C233.325 282.791 229.744 286.373 225.325 286.373H205.03V316.386C205.03 320.804 201.448 324.386 197.03 324.386H155.308C150.89 324.386 147.308 320.804 147.308 316.386V286.373H66.1345C61.7162 286.373 58.1345 282.791 58.1345 278.373V241.297C58.1345 239.709 58.6074 238.157 59.4929 236.838L137.65 120.439ZM146.419 124.889C145.086 124.889 143.841 125.552 143.098 126.659L66.8039 240.283C66.3612 240.942 66.1247 241.719 66.1247 242.513V274.383C66.1247 276.592 67.9156 278.383 70.1247 278.383H151.298C153.508 278.383 155.298 280.174 155.298 282.383V312.396C155.298 314.605 157.089 316.396 159.298 316.396H193.04C195.249 316.396 197.04 314.605 197.04 312.396V282.383C197.04 280.174 198.831 278.383 201.04 278.383H221.335C223.544 278.383 225.335 276.592 225.335 274.383V254.361C225.335 252.151 223.544 250.361 221.335 250.361H201.04C198.831 250.361 197.04 248.57 197.04 246.361V128.889C197.04 126.68 195.249 124.889 193.04 124.889H146.419ZM150.801 159.89C151.538 158.746 152.804 158.056 154.164 158.056H154.728C156.937 158.056 158.728 159.846 158.728 162.056V246.361C158.728 248.57 156.937 250.361 154.728 250.361H99.8659C96.6997 250.361 94.7886 246.857 96.5031 244.195L150.801 159.89ZM150.738 178.144C150.738 177.146 149.437 176.763 148.897 177.602L108.175 240.829C107.746 241.494 108.224 242.37 109.016 242.37H149.738C150.29 242.37 150.738 241.923 150.738 241.37V178.144Z" fill="#221F1D"/>
<path fill-rule="evenodd" clip-rule="evenodd" d="M534.359 120.439C535.845 118.226 538.335 116.898 541.001 116.898H593.738C598.157 116.898 601.738 120.48 601.738 124.898V242.37H622.034C626.452 242.37 630.034 245.952 630.034 250.37V278.373C630.034 282.791 626.452 286.373 622.034 286.373H601.738V316.386C601.738 320.804 598.157 324.386 593.738 324.386H552.017C547.598 324.386 544.017 320.804 544.017 316.386V286.373H462.843C458.425 286.373 454.843 282.791 454.843 278.373V241.297C454.843 239.709 455.316 238.157 456.201 236.838L534.359 120.439ZM543.128 124.889C541.795 124.889 540.55 125.552 539.807 126.659L463.512 240.283C463.07 240.942 462.833 241.719 462.833 242.513V274.383C462.833 276.592 464.624 278.383 466.833 278.383H548.007C550.216 278.383 552.007 280.174 552.007 282.383V312.396C552.007 314.605 553.798 316.396 556.007 316.396H589.748C591.957 316.396 593.748 314.605 593.748 312.396V282.383C593.748 280.174 595.539 278.383 597.748 278.383H618.044C620.253 278.383 622.044 276.592 622.044 274.383V254.361C622.044 252.151 620.253 250.361 618.044 250.361H597.748C595.539 250.361 593.748 248.57 593.748 246.361V128.889C593.748 126.68 591.957 124.889 589.748 124.889H543.128ZM547.51 159.89C548.246 158.746 549.513 158.056 550.873 158.056H551.437C553.646 158.056 555.437 159.846 555.437 162.056V246.361C555.437 248.57 553.646 250.361 551.437 250.361H496.574C493.408 250.361 491.497 246.857 493.212 244.195L547.51 159.89ZM547.446 178.144C547.446 177.146 546.146 176.763 545.606 177.602L504.883 240.829C504.455 241.494 504.933 242.37 505.724 242.37H546.446C546.999 242.37 547.446 241.923 547.446 241.37V178.144Z" fill="#221F1D"/>
<g clip-path="url(#clip0_9147_21088)">
<path d="M258.115 285.673C256.617 285.15 255.042 284.88 253.455 284.875C249.577 284.933 245.873 286.5 243.131 289.243C240.388 291.986 238.821 295.689 238.763 299.568V324.755C238.745 328.522 240.174 332.152 242.756 334.895C245.338 337.638 248.874 339.285 252.635 339.495C256.396 339.705 260.095 338.463 262.966 336.024C265.837 333.586 267.662 330.138 268.064 326.392L258.115 285.673Z" fill="#423E3C"/>
<path d="M406.678 133.75V137.948L405.209 157.972L389.886 331.05H281.371C275.959 331.054 270.747 329.008 266.783 325.324C262.819 321.64 260.397 316.592 260.004 311.194L247.158 137.948V133.75H406.678Z" fill="#F1B434"/>
<path d="M259.752 121.156V104.365C259.752 102.138 260.637 100.002 262.211 98.4278C263.786 96.8533 265.921 95.9688 268.148 95.9688H385.689C387.915 95.9688 390.051 96.8533 391.625 98.4278C393.2 100.002 394.084 102.138 394.084 104.365V121.156H259.752Z" fill="#F1B434"/>
<path d="M247.158 116.961H406.678C408.904 116.961 411.04 117.845 412.614 119.42C414.189 120.995 415.073 123.13 415.073 125.357V133.752C415.073 134.866 414.631 135.934 413.844 136.721C413.057 137.508 411.989 137.95 410.876 137.95H242.96C241.847 137.95 240.779 137.508 239.992 136.721C239.205 135.934 238.762 134.866 238.762 133.752V125.357C238.762 123.13 239.647 120.995 241.222 119.42C242.796 117.845 244.932 116.961 247.158 116.961Z" fill="#F4C35D"/>
<path d="M473.592 339.361L356.555 339.445C355.039 339.428 353.553 339.016 352.243 338.252C350.933 337.487 349.844 336.396 349.082 335.084C348.32 333.773 347.912 332.286 347.898 330.769C347.883 329.252 348.263 327.758 348.999 326.432L354.624 313.838C355.726 311.353 356.297 308.665 356.303 305.946V263.884C355.828 251.317 359.766 238.981 367.433 229.013C375.1 219.045 386.014 212.075 398.282 209.311V205.113H431.865V209.311C444.133 212.075 455.047 219.045 462.714 229.013C470.382 238.981 474.319 251.317 473.844 263.884V305.862C473.85 308.581 474.422 311.269 475.523 313.754L481.148 326.348C481.885 327.674 482.264 329.168 482.249 330.685C482.235 332.202 481.827 333.689 481.065 335C480.304 336.312 479.215 337.403 477.905 338.168C476.595 338.932 475.109 339.344 473.592 339.361Z" fill="#423E3C"/>
<path d="M444.459 169.43C444.248 173.981 443.004 178.425 440.822 182.425C438.641 186.425 435.578 189.876 431.865 192.518V196.716H398.282V192.518C394.57 189.876 391.507 186.425 389.325 182.425C387.144 178.425 385.9 173.981 385.689 169.43C385.689 166.646 386.794 163.977 388.763 162.009C390.731 160.041 393.4 158.935 396.183 158.935C398.32 158.916 400.408 159.578 402.144 160.824C403.72 158.922 405.696 157.392 407.931 156.341C410.165 155.291 412.604 154.746 415.074 154.746C417.543 154.746 419.982 155.291 422.217 156.341C424.452 157.392 426.428 158.922 428.003 160.824C429.74 159.578 431.827 158.916 433.964 158.935C436.748 158.935 439.417 160.041 441.385 162.009C443.353 163.977 444.459 166.646 444.459 169.43Z" fill="#423E3C"/>
<path d="M431.865 192.516H398.282C393.645 192.516 389.886 196.275 389.886 200.911C389.886 205.548 393.645 209.307 398.282 209.307H431.865C436.502 209.307 440.261 205.548 440.261 200.911C440.261 196.275 436.502 192.516 431.865 192.516Z" fill="#423E3C"/>
<path d="M253.455 343.65C257.034 343.644 260.536 342.619 263.554 340.695C266.571 338.771 268.979 336.028 270.494 332.786C273.892 334.405 277.607 335.249 281.371 335.254H344.645C344.883 335.979 345.184 336.681 345.544 337.353C346.667 339.275 348.276 340.868 350.208 341.973C352.14 343.078 354.329 343.656 356.555 343.65L473.596 343.57C475.812 343.552 477.987 342.965 479.911 341.866C481.836 340.766 483.446 339.191 484.587 337.291C485.728 335.391 486.363 333.23 486.429 331.014C486.496 328.799 485.993 326.603 484.968 324.638L479.351 312.044C478.484 310.101 478.038 307.997 478.041 305.869V263.89C478.041 262.375 477.995 260.897 477.916 259.453C477.852 258.34 477.349 257.297 476.517 256.555C475.685 255.813 474.592 255.431 473.478 255.495C472.365 255.558 471.322 256.061 470.58 256.893C469.838 257.726 469.456 258.818 469.52 259.932C469.591 261.216 469.629 262.539 469.629 263.89V305.869C469.624 309.173 470.32 312.441 471.669 315.457L477.437 328.357C477.828 329.067 478.026 329.866 478.013 330.676C478 331.486 477.775 332.278 477.361 332.975C476.979 333.639 476.429 334.19 475.765 334.573C475.102 334.957 474.349 335.158 473.583 335.158L356.551 335.254C355.784 335.255 355.031 335.053 354.367 334.669C353.704 334.285 353.154 333.732 352.773 333.067C352.342 332.314 352.122 331.46 352.135 330.593C352.149 329.726 352.395 328.878 352.848 328.139L358.465 315.545C359.813 312.526 360.507 309.256 360.501 305.949V263.89C359.955 252.348 363.481 240.981 370.464 231.774C377.446 222.567 387.44 216.104 398.702 213.516H431.445C439.362 215.391 446.7 219.178 452.814 224.546C458.928 229.914 463.634 236.699 466.518 244.307C466.891 245.357 467.666 246.215 468.672 246.693C469.677 247.171 470.832 247.23 471.881 246.858C472.93 246.485 473.789 245.71 474.267 244.704C474.745 243.699 474.804 242.544 474.431 241.495C471.707 233.977 467.417 227.124 461.844 221.389C456.272 215.654 449.544 211.169 442.108 208.231C444.003 205.627 444.813 202.389 444.368 199.199C443.922 196.01 442.255 193.118 439.719 191.133C445.343 185.297 448.538 177.542 448.656 169.438C448.656 165.541 447.108 161.804 444.353 159.049C441.598 156.294 437.86 154.746 433.964 154.746C432.202 154.74 430.454 155.054 428.805 155.673C426.271 153.425 423.216 151.846 419.917 151.077C416.619 150.309 413.18 150.377 409.914 151.274L410.577 142.152H410.875C413.102 142.152 415.238 141.267 416.812 139.693C418.387 138.118 419.271 135.983 419.271 133.756V125.36C419.271 122.02 417.944 118.817 415.583 116.455C413.221 114.094 410.018 112.767 406.678 112.767H398.282V104.371C398.282 101.031 396.955 97.8277 394.593 95.4659C392.231 93.1042 389.028 91.7773 385.688 91.7773H268.147C264.807 91.7773 261.604 93.1042 259.242 95.4659C256.881 97.8277 255.554 101.031 255.554 104.371V112.767H247.158C243.818 112.767 240.615 114.094 238.253 116.455C235.891 118.817 234.564 122.02 234.564 125.36V133.756C234.564 135.983 235.449 138.118 237.024 139.693C238.598 141.267 240.734 142.152 242.96 142.152H243.262L253.53 280.682H253.455C248.465 280.748 243.699 282.76 240.171 286.288C236.642 289.817 234.631 294.583 234.564 299.572V324.76C234.57 329.768 236.562 334.57 240.103 338.111C243.645 341.653 248.447 343.645 253.455 343.65ZM398.282 205.12C397.168 205.12 396.101 204.678 395.313 203.891C394.526 203.103 394.084 202.036 394.084 200.922C394.084 199.809 394.526 198.741 395.313 197.954C396.101 197.167 397.168 196.724 398.282 196.724H431.865C432.978 196.724 434.046 197.167 434.833 197.954C435.62 198.741 436.063 199.809 436.063 200.922C436.063 202.036 435.62 203.103 434.833 203.891C434.046 204.678 432.978 205.12 431.865 205.12H398.282ZM424.775 163.519C425.456 164.338 426.423 164.868 427.48 165C428.537 165.133 429.605 164.858 430.467 164.233C431.486 163.506 432.712 163.123 433.964 163.141C435.634 163.141 437.235 163.805 438.416 164.986C439.597 166.166 440.261 167.768 440.261 169.438C440.084 173.107 439.116 176.695 437.425 179.955C435.733 183.215 433.357 186.072 430.459 188.329H399.688C396.791 186.071 394.415 183.215 392.723 179.954C391.031 176.694 390.064 173.107 389.886 169.438C389.886 167.768 390.549 166.166 391.73 164.986C392.911 163.805 394.513 163.141 396.183 163.141C397.435 163.123 398.66 163.506 399.68 164.233C400.542 164.858 401.61 165.133 402.667 165C403.724 164.868 404.691 164.338 405.372 163.519C406.552 162.088 408.033 160.936 409.71 160.145C411.387 159.354 413.219 158.944 415.073 158.944C416.928 158.944 418.759 159.354 420.436 160.145C422.114 160.936 423.595 162.088 424.775 163.519ZM263.95 104.371C263.95 103.258 264.392 102.19 265.179 101.403C265.966 100.615 267.034 100.173 268.147 100.173H385.688C386.801 100.173 387.869 100.615 388.656 101.403C389.444 102.19 389.886 103.258 389.886 104.371V112.767H263.95V104.371ZM242.96 125.36C242.96 124.247 243.402 123.179 244.19 122.392C244.977 121.605 246.045 121.163 247.158 121.163H406.678C407.791 121.163 408.859 121.605 409.646 122.392C410.433 123.179 410.875 124.247 410.875 125.36V133.756H242.96V125.36ZM402.161 142.152L401.174 155.627C398.956 154.826 396.578 154.57 394.24 154.882C391.903 155.194 389.674 156.064 387.744 157.419C385.813 158.773 384.237 160.572 383.149 162.664C382.06 164.756 381.491 167.08 381.49 169.438C381.617 177.546 384.822 185.302 390.457 191.133C387.907 193.126 386.236 196.036 385.801 199.244C385.366 202.451 386.2 205.701 388.127 208.302C374.837 213.936 352.105 228.733 352.105 263.89V305.949C352.109 308.076 351.661 310.179 350.791 312.12L345.334 324.411C344.933 325.193 344.612 326.013 344.377 326.859H281.371C277.025 326.85 272.842 325.203 269.657 322.246C266.472 319.289 264.52 315.24 264.189 310.907L251.679 142.152H402.161ZM242.96 299.572C242.994 298.147 243.313 296.743 243.897 295.442C244.482 294.141 245.32 292.97 246.363 291.998C247.405 291.025 248.632 290.271 249.97 289.779C251.308 289.287 252.732 289.067 254.156 289.132L255.835 311.499C256.29 317.714 259.01 323.547 263.479 327.891C262.788 330.012 261.449 331.864 259.651 333.184C257.853 334.505 255.686 335.229 253.455 335.254C250.672 335.254 248.002 334.149 246.034 332.181C244.066 330.212 242.96 327.543 242.96 324.76V299.572Z" fill="#221F1D"/>
<path d="M397.237 226.239C396.573 226.411 380.919 230.688 373.309 254.197C372.965 255.255 373.055 256.407 373.561 257.399C374.066 258.391 374.945 259.142 376.004 259.486C376.42 259.62 376.855 259.69 377.292 259.692C378.179 259.692 379.043 259.411 379.76 258.89C380.477 258.369 381.011 257.634 381.285 256.791C387.367 238.022 398.781 234.542 399.365 234.362C400.442 234.079 401.363 233.381 401.925 232.42C402.487 231.458 402.644 230.313 402.362 229.236C402.08 228.159 401.381 227.238 400.42 226.676C399.459 226.114 398.314 225.956 397.237 226.239Z" fill="#221F1D"/>
<path d="M432.91 226.243C432.376 226.105 431.82 226.074 431.274 226.151C430.727 226.228 430.202 226.412 429.726 226.692C429.251 226.972 428.836 227.343 428.504 227.784C428.172 228.225 427.931 228.727 427.793 229.261C427.655 229.795 427.624 230.351 427.701 230.897C427.778 231.444 427.962 231.969 428.242 232.445C428.522 232.92 428.894 233.335 429.334 233.667C429.775 233.999 430.277 234.24 430.811 234.378C430.929 234.407 442.737 237.925 448.862 256.795C449.136 257.638 449.67 258.373 450.387 258.894C451.104 259.415 451.968 259.695 452.854 259.695C453.295 259.695 453.732 259.625 454.151 259.49C455.21 259.146 456.089 258.395 456.594 257.403C457.1 256.411 457.19 255.259 456.846 254.2C449.227 230.692 433.573 226.415 432.91 226.243Z" fill="#221F1D"/>
<path d="M410.875 234.506V263.892C410.875 265.005 411.318 266.073 412.105 266.86C412.892 267.647 413.96 268.09 415.073 268.09C416.186 268.09 417.254 267.647 418.041 266.86C418.829 266.073 419.271 265.005 419.271 263.892V234.506C419.271 233.393 418.829 232.325 418.041 231.538C417.254 230.751 416.186 230.309 415.073 230.309C413.96 230.309 412.892 230.751 412.105 231.538C411.318 232.325 410.875 233.393 410.875 234.506Z" fill="#221F1D"/>
</g>
<defs>
<clipPath id="clip0_9147_21088">
<rect width="251.873" height="251.873" fill="white" transform="translate(234.565 91.7656)"/>
</clipPath>
</defs>
</svg>
