<svg
  width="24"
  height="22"
  viewBox="0 0 24 22"
  fill="currentColor"
  xmlns="http://www.w3.org/2000/svg"
>
  <path
    id="Vector"
    d="M23.7047 7.27483C23.5818 7.21852 23.4416 7.21318 23.3147 7.25998C23.1879 7.30677 23.0847 7.4019 23.0278 7.52455C22.7059 8.22406 22.1252 8.63925 21.2873 9.02887C20.4786 7.72938 19.3145 6.68892 17.9326 6.03075C17.81 5.9723 17.6691 5.96498 17.541 6.0104C17.4129 6.05582 17.3081 6.15026 17.2497 6.27295C17.1912 6.39563 17.1839 6.53651 17.2293 6.66459C17.2748 6.79267 17.3692 6.89746 17.4919 6.95591C18.8866 7.61585 20.0208 8.72301 20.7141 10.1015C21.3929 11.4478 21.5113 13.008 21.0436 14.4414C20.6991 15.4809 19.9906 16.3971 18.9511 17.1823C18.8888 17.229 18.8379 17.2894 18.8025 17.3587C18.767 17.4281 18.7479 17.5046 18.7465 17.5825C18.7465 17.7329 18.7299 17.8833 18.7179 18.0127C18.7059 18.1421 18.6999 18.2218 18.6968 18.3136C18.6938 18.4053 18.6968 18.464 18.6968 18.5362C18.6878 19.0507 18.6773 19.6915 18.4456 20.0796C18.3102 20.3083 17.8695 20.3519 17.5235 20.3504C17.3999 20.3635 17.2755 20.3347 17.1702 20.2687C17.065 20.2027 16.9849 20.1033 16.9428 19.9864C16.9059 19.9056 16.8752 19.8221 16.851 19.7367C16.827 19.6539 16.8059 19.5637 16.7833 19.4689C16.7471 19.2858 16.6968 19.1057 16.6329 18.9303C16.5859 18.8121 16.4965 18.7157 16.3821 18.66C16.2677 18.6044 16.1366 18.5935 16.0146 18.6295L15.9635 18.6445L15.7243 18.7122C14.0069 19.1404 12.2239 19.2395 10.4697 19.004C9.96424 18.9394 9.52648 18.8687 9.13235 18.7859C9.00568 18.757 8.87275 18.7777 8.76085 18.8437C8.64895 18.9097 8.56657 19.0161 8.53061 19.1409C8.49752 19.2538 8.47195 19.3636 8.44788 19.4689C8.42381 19.5742 8.40576 19.6554 8.38018 19.7382C8.35578 19.8235 8.32511 19.907 8.28842 19.9879C8.24503 20.1034 8.16438 20.2012 8.05922 20.2657C7.95407 20.3303 7.8304 20.358 7.70775 20.3444C7.36176 20.3444 6.92099 20.3023 6.7856 20.0736C6.55544 19.6855 6.5434 19.0462 6.53438 18.5302C6.53438 18.4535 6.53438 18.3798 6.53438 18.3075C6.53438 18.2353 6.52385 18.1255 6.51332 18.0067V17.9811C6.50692 17.9096 6.48554 17.8402 6.45054 17.7775C6.41555 17.7147 6.36775 17.6601 6.31023 17.6171C5.97981 17.3681 5.68916 17.0704 5.44825 16.734C4.91873 16.0195 4.18312 15.1109 3.19177 14.4113C2.88896 14.2183 2.54841 14.0921 2.19289 14.0413C2.00448 14.0123 1.82082 13.9582 1.64682 13.8803C1.22561 13.6577 1.13686 12.9928 1.05863 12.4076L1.0481 12.3264C1.03607 12.2331 1.02704 12.1458 1.02403 12.0661C0.99846 11.4538 1.23013 11.323 1.44976 11.2493C1.63715 11.1953 1.82895 11.1581 2.02291 11.1379C2.46066 11.0778 2.95709 11.0101 3.3768 10.6671C3.68165 10.3952 3.94294 10.0781 4.15153 9.72688C4.25232 9.57644 4.34558 9.42601 4.45239 9.30115C4.71888 8.96497 5.01601 8.65424 5.33994 8.37298C5.40511 8.31585 5.45464 8.24304 5.48385 8.16145C5.51307 8.07985 5.52101 7.99216 5.50692 7.90664V7.89311C5.45878 7.60127 5.40463 7.27031 5.34746 7.05068C5.33693 7.01007 5.3249 6.96193 5.30986 6.90928C4.86758 5.25452 5.02103 4.85437 5.10677 4.7611C5.17565 4.73263 5.25238 4.72943 5.32339 4.75207C5.82865 4.85831 6.28884 5.11782 6.64118 5.49521C6.92917 5.80656 7.16534 6.16208 7.34069 6.54824C7.39601 6.66273 7.492 6.75251 7.60992 6.80007C7.72785 6.84763 7.85926 6.84956 7.97853 6.80548C8.48639 6.61072 9.00712 6.45138 9.53701 6.32861C9.66887 6.29809 9.7832 6.21643 9.85486 6.10161C9.92652 5.98679 9.94963 5.84821 9.91911 5.71635C9.88859 5.58449 9.80693 5.47015 9.69211 5.39849C9.57729 5.32684 9.43871 5.30373 9.30685 5.33425C8.87881 5.43316 8.45606 5.55366 8.04021 5.69529C7.85394 5.3699 7.63084 5.06704 7.37529 4.79269C6.87476 4.25509 6.21901 3.88699 5.4994 3.73966C4.89767 3.62834 4.53964 3.85098 4.34859 4.05858C3.7604 4.69341 3.98455 5.92545 4.3155 7.162L4.3516 7.29589C4.38169 7.41473 4.41629 7.59675 4.44788 7.7878C4.15825 8.05773 3.8897 8.34941 3.64457 8.66031C3.5152 8.82428 3.40388 8.99277 3.29707 9.15674C3.14415 9.42056 2.95247 9.65991 2.72843 9.86678C2.53287 10.0262 2.23201 10.0684 1.883 10.1165C1.6256 10.1426 1.37124 10.193 1.12332 10.2669C0.584771 10.4474 -0.0455412 10.9108 0.00259716 12.0932C0.00259716 12.2045 0.0176404 12.3248 0.034188 12.4482L0.0447183 12.5279C0.144004 13.2801 0.280897 14.2985 1.16694 14.7679C1.42531 14.8931 1.70045 14.9802 1.98379 15.0266C2.20143 15.054 2.41153 15.124 2.60207 15.2327C3.28353 15.7126 3.90933 16.3594 4.6284 17.3297C4.88216 17.6802 5.17768 17.9985 5.50843 18.2775C5.50912 18.2905 5.50912 18.3035 5.50843 18.3166C5.50843 18.3858 5.50843 18.458 5.50843 18.5302C5.51896 19.1665 5.534 19.9578 5.90256 20.5776C6.36589 21.3553 7.3768 21.3478 7.70775 21.3463C8.02402 21.3572 8.33621 21.2723 8.60334 21.1026C8.87046 20.933 9.08004 20.6865 9.20455 20.3955C9.26528 20.269 9.31559 20.1377 9.35499 20.0029C9.37003 19.9518 9.38357 19.9021 9.3956 19.8525C9.68293 19.9021 9.99733 19.9488 10.3268 19.9909C12.1488 20.2339 13.9999 20.1421 15.789 19.7201C15.81 19.8119 15.8326 19.9066 15.8612 20.0029C15.9019 20.1372 15.9522 20.2684 16.0116 20.3955C16.1368 20.6876 16.3476 20.9348 16.6161 21.1045C16.8847 21.2743 17.1985 21.3586 17.5159 21.3463H17.5867C17.9733 21.3463 18.8879 21.3072 19.3226 20.5776C19.6927 19.9578 19.7062 19.1665 19.7168 18.5302C19.7168 18.4565 19.7168 18.3798 19.7168 18.3166C19.7168 18.2534 19.7258 18.1767 19.7333 18.0849C19.7408 17.9931 19.7484 17.9239 19.7544 17.8337C20.8495 16.9657 21.6273 15.9021 22.0109 14.7468C22.531 13.1638 22.4425 11.4437 21.7627 9.92244C22.7585 9.44106 23.5122 8.89047 23.9545 7.93523C24.0072 7.81433 24.0107 7.67759 23.964 7.5542C23.9174 7.43081 23.8243 7.33055 23.7047 7.27483Z"
  />
  <path
    id="Vector_2"
    d="M17.5115 15.3261C17.6109 15.4178 17.7426 15.4663 17.8777 15.461C18.0128 15.4556 18.1403 15.3968 18.2321 15.2975C19.4731 13.9571 19.6868 12.2061 18.8338 10.3633C18.7751 10.2437 18.6718 10.1518 18.5462 10.1073C18.4206 10.0629 18.2826 10.0694 18.1616 10.1254C18.0407 10.1814 17.9466 10.2826 17.8993 10.4071C17.852 10.5317 17.8554 10.6699 17.9086 10.792C18.5961 12.2753 18.4532 13.5585 17.4844 14.604C17.4387 14.6531 17.4031 14.7108 17.3797 14.7737C17.3563 14.8366 17.3455 14.9036 17.348 14.9706C17.3505 15.0377 17.3663 15.1037 17.3943 15.1646C17.4224 15.2256 17.4622 15.2805 17.5115 15.3261Z"
  />
  <path
    id="Vector_3"
    d="M13.7703 7.31256C14.4936 7.31256 15.2008 7.09805 15.8022 6.69614C16.4036 6.29424 16.8723 5.723 17.1491 5.05468C17.4258 4.38636 17.4982 3.65098 17.3569 2.94155C17.2157 2.23212 16.8673 1.5805 16.3557 1.06912C15.8441 0.557737 15.1923 0.209559 14.4828 0.068622C13.7733 -0.0723148 13.038 0.000321009 12.3698 0.277342C11.7016 0.554364 11.1305 1.02333 10.7289 1.62492C10.3272 2.22651 10.113 2.9337 10.1133 3.65706C10.1145 4.62645 10.5002 5.55578 11.1858 6.2411C11.8714 6.92643 12.8009 7.31177 13.7703 7.31256ZM13.7703 1.01997C14.2916 1.01997 14.8011 1.17455 15.2345 1.46415C15.668 1.75375 16.0058 2.16537 16.2053 2.64696C16.4047 3.12855 16.4569 3.65847 16.3552 4.16973C16.2535 4.68098 16.0025 5.15059 15.6339 5.51919C15.2653 5.88778 14.7957 6.13879 14.2845 6.24049C13.7732 6.34218 13.2433 6.28999 12.7617 6.09051C12.2801 5.89103 11.8685 5.55322 11.5789 5.1198C11.2893 4.68638 11.1347 4.17682 11.1347 3.65555C11.1355 2.9568 11.4134 2.28689 11.9075 1.7928C12.4016 1.2987 13.0715 1.02077 13.7703 1.01997Z"
  />
  <path
    id="Vector_4"
    d="M10.6196 8.53539C10.6376 8.53539 12.4594 8.34435 13.6704 8.51584C14.388 8.61545 15.0937 8.78784 15.7764 9.03032C15.8353 9.05351 15.8981 9.06525 15.9615 9.06492C16.0804 9.06501 16.1957 9.02349 16.2873 8.94754C16.3789 8.8716 16.4411 8.76602 16.463 8.64907C16.485 8.53212 16.4654 8.41118 16.4076 8.30718C16.3498 8.20318 16.2574 8.12267 16.1465 8.07958C15.3914 7.80742 14.6099 7.61482 13.8148 7.50493C12.4774 7.31539 10.5925 7.51245 10.5053 7.51997C10.3706 7.53434 10.2472 7.6016 10.1621 7.70697C10.0771 7.81234 10.0373 7.94719 10.0517 8.08184C10.0661 8.21649 10.1333 8.33993 10.2387 8.42498C10.3441 8.51004 10.4789 8.54976 10.6136 8.53539H10.6196Z"
  />
  <path
    id="Vector_5"
    d="M5.26562 10.8807C5.26563 11.0449 5.31433 11.2055 5.40557 11.342C5.49681 11.4786 5.6265 11.585 5.77824 11.6479C5.92997 11.7107 6.09693 11.7272 6.25801 11.6951C6.41909 11.6631 6.56705 11.584 6.68318 11.4679C6.79932 11.3517 6.8784 11.2038 6.91044 11.0427C6.94249 10.8816 6.92604 10.7146 6.86319 10.5629C6.80034 10.4112 6.69391 10.2815 6.55735 10.1902C6.42079 10.099 6.26025 10.0503 6.09601 10.0503C5.8759 10.0507 5.66492 10.1383 5.50928 10.2939C5.35364 10.4496 5.26602 10.6606 5.26562 10.8807ZM6.28556 10.8807C6.28556 10.9182 6.27444 10.9548 6.25361 10.986C6.23279 11.0172 6.20318 11.0415 6.16855 11.0558C6.13391 11.0701 6.0958 11.0739 6.05903 11.0666C6.02227 11.0593 5.98849 11.0412 5.96198 11.0147C5.93548 10.9882 5.91742 10.9544 5.91011 10.9177C5.9028 10.8809 5.90655 10.8428 5.9209 10.8081C5.93524 10.7735 5.95954 10.7439 5.99071 10.7231C6.02188 10.7023 6.05852 10.6911 6.09601 10.6911C6.14602 10.6915 6.19385 10.7117 6.22907 10.7472C6.26429 10.7827 6.28405 10.8307 6.28405 10.8807H6.28556Z"
  />
</svg>
