<svg
  width="38"
  height="40"
  stroke="currentColor"
  stroke-width="1.5"
  stroke-miterlimit="10"
  viewBox="0 0 38 40"
  fill="none"
  xmlns="http://www.w3.org/2000/svg"
>
  <path
    d="M15.5808 30.3646C23.7122 30.3646 30.3041 23.7728 30.3041 15.6413C30.3041 7.50983 23.7122 0.917969 15.5808 0.917969C7.44928 0.917969 0.857422 7.50983 0.857422 15.6413C0.857422 23.7728 7.44928 30.3646 15.5808 30.3646Z"
  />
  <path
    d="M26.8623 24.9167L36.3356 34.3784C36.8524 34.8951 37.1427 35.596 37.1427 36.3267C37.1427 37.0575 36.8524 37.7583 36.3356 38.2751C35.8189 38.7918 35.1181 39.0821 34.3873 39.0821C33.6565 39.0821 32.9557 38.7918 32.439 38.2751L22.9773 28.8017"
  />
  <path
    d="M23.6313 15.6301C21.403 17.8584 18.498 20.2384 15.5813 20.2384C12.6646 20.2384 9.74797 17.9051 7.54297 15.6301C9.75964 13.4134 12.6763 11.0334 15.5813 11.0334C18.4863 11.0334 21.4613 13.4134 23.6313 15.6301Z"
  />
  <path
    d="M15.5817 16.5984C16.11 16.5984 16.5383 16.1701 16.5383 15.6417C16.5383 15.1134 16.11 14.6851 15.5817 14.6851C15.0533 14.6851 14.625 15.1134 14.625 15.6417C14.625 16.1701 15.0533 16.5984 15.5817 16.5984Z"
  />
</svg>
