<svg
  width="56"
  height="56"
  viewBox="0 0 56 56"
  fill="none"
  xmlns="http://www.w3.org/2000/svg"
  stroke="#2D2926"
  stroke-width="1.5"
  stroke-miterlimit="10"
>
  <path
    d="M24.5808 38.3646C32.7122 38.3646 39.3041 31.7728 39.3041 23.6413C39.3041 15.5098 32.7122 8.91797 24.5808 8.91797C16.4493 8.91797 9.85742 15.5098 9.85742 23.6413C9.85742 31.7728 16.4493 38.3646 24.5808 38.3646Z"
  />
  <path
    d="M35.8624 32.9165L45.3358 42.3782C45.8525 42.8949 46.1428 43.5957 46.1428 44.3265C46.1428 45.0573 45.8525 45.7581 45.3358 46.2748C44.819 46.7916 44.1182 47.0819 43.3874 47.0819C42.6567 47.0819 41.9558 46.7916 41.4391 46.2748L31.9774 36.8015"
  />
  <path
    d="M32.6313 23.6304C30.403 25.8587 27.498 28.2387 24.5813 28.2387C21.6646 28.2387 18.748 25.9054 16.543 23.6304C18.7596 21.4137 21.6763 19.0337 24.5813 19.0337C27.4863 19.0337 30.4613 21.4137 32.6313 23.6304Z"
  />
  <path
    d="M24.5817 24.5984C25.11 24.5984 25.5383 24.1701 25.5383 23.6417C25.5383 23.1134 25.11 22.6851 24.5817 22.6851C24.0533 22.6851 23.625 23.1134 23.625 23.6417C23.625 24.1701 24.0533 24.5984 24.5817 24.5984Z"
  />
</svg>
