<svg width="124" height="124" fill="currentColor" xmlns="http://www.w3.org/2000/svg">
  <path
    d="M65.54 36.567c-6.909 0-12.534 4.567-12.534 10.184 0 5.617 5.625 10.184 12.534 10.184 6.91 0 12.53-4.568 12.53-10.184s-5.62-10.184-12.53-10.184zm1.567 17.136v-6.169h1.562a1.567 1.567 0 0 0 0-3.133h-6.263a1.567 1.567 0 0 0 0 3.133h1.563v6.169c-4.442-.564-7.834-3.466-7.834-6.952 0-3.885 4.218-7.05 9.4-7.05s9.4 3.165 9.4 7.05c0 3.486-3.392 6.388-7.834 6.952M73.372 35.001a3.133 3.133 0 1 0 0-6.266 3.133 3.133 0 0 0 0 6.266zM57.705 35.001a3.133 3.133 0 1 0 0-6.266 3.133 3.133 0 0 0 0 6.266z"
  />
  <path
    d="M101.531 89.832a11.56 11.56 0 0 0-6.631-7.806 10.028 10.028 0 0 0-1.469-.474 56.736 56.736 0 0 0-.58-4.583l.807.114 1.069-3.012-3.6-.513a1.566 1.566 0 0 0-1.755 1.872c.4 1.93.694 3.879.881 5.84a13.145 13.145 0 0 0-6.22 2.1 18.8 18.8 0 0 0-37 0 13.146 13.146 0 0 0-6.22-2.1c.187-1.961.48-3.91.881-5.84a1.567 1.567 0 0 0-1.754-1.872l-9.98 1.426a4.667 4.667 0 0 1-2.139-9.048l20.4-6.8c.193-.067.372-.17.525-.306a32.635 32.635 0 0 0 16.793 4.37 32.636 32.636 0 0 0 16.787-4.371c.153.135.332.24.525.306l12.855 4.285.423-1.191-3.137-3.016-7.587-2.53A21.623 21.623 0 0 0 93.74 39.7a20.905 20.905 0 0 0-.783-5.683A11.75 11.75 0 1 0 77.6 18.3a34.092 34.092 0 0 0-12.06-2.1c-4.114-.033-8.2.678-12.06 2.1a11.75 11.75 0 1 0-15.358 15.718 20.905 20.905 0 0 0-.783 5.683 21.623 21.623 0 0 0 8.335 16.983l-18.836 6.279a7.8 7.8 0 0 0 3.572 15.122l7.814-1.116a56.679 56.679 0 0 0-.58 4.583c-.501.12-.992.278-1.469.474a11.556 11.556 0 0 0-6.627 7.806 18.42 18.42 0 0 0 8.268 20.226 12.556 12.556 0 0 0 6.177 1.716 10.55 10.55 0 0 0 4.023-.787 10.283 10.283 0 0 0 2-1.089c4.532 1.594 9.921 1.872 15.526 1.872s10.994-.278 15.526-1.872c.624.436 1.295.801 2 1.089a10.55 10.55 0 0 0 4.023.787 12.557 12.557 0 0 0 6.177-1.716 18.414 18.414 0 0 0 8.268-20.226M40.472 39.7a17.753 17.753 0 0 1 1.077-6.11 1.567 1.567 0 0 0-1.049-2.044 8.618 8.618 0 1 1 10.587-10.74 1.563 1.563 0 0 0 2.131.987 30.4 30.4 0 0 1 12.322-2.46 30.4 30.4 0 0 1 12.322 2.46 1.564 1.564 0 0 0 2.131-.987 8.616 8.616 0 1 1 10.591 10.74 1.566 1.566 0 0 0-1.054 2.045 17.755 17.755 0 0 1 1.077 6.11c0 11.609-10.775 20.367-25.067 20.367S40.472 51.31 40.472 39.7zm6.357 68.387a8.491 8.491 0 0 1-7.469-.756 15.293 15.293 0 0 1-6.8-16.631 8.488 8.488 0 0 1 4.8-5.773 7.499 7.499 0 0 1 2.84-.552c4.195 0 8.609 3.333 10.732 8.519 2.613 6.388.768 13.2-4.1 15.2m18.711.548c-4.806 0-9.228-.188-12.972-1.226 2.93-3.952 3.6-10 1.265-15.7a18.524 18.524 0 0 0-3.925-6 15.664 15.664 0 0 1 31.264 0 18.524 18.524 0 0 0-3.925 6c-2.334 5.707-1.665 11.75 1.265 15.7-3.744 1.038-8.167 1.226-12.972 1.226zm32.282-8.519a14.524 14.524 0 0 1-6.1 7.215 8.492 8.492 0 0 1-7.469.756c-4.872-1.994-6.717-8.809-4.1-15.2 2.123-5.186 6.537-8.519 10.732-8.519a7.499 7.499 0 0 1 2.84.552 8.49 8.49 0 0 1 4.8 5.773 14.5 14.5 0 0 1-.7 9.42"
  />
  <path
    d="m93.662 77.083-.807-.114 1.24-4.625-1.119-4.726 1.793-5.066-3.621-3.481 1.845.144 4.5 2.694-2.069 5.84 1.12 4.728-2.882 4.606z"
  />
</svg>
