<svg width="124" height="124" fill="currentColor" xmlns="http://www.w3.org/2000/svg">
  <path
    d="M61.608 23.293a45.4 45.4 0 0 1 27.22 9.016 45.961 45.961 0 0 1 6.949 6.393l1.024 1.159-1.19.989a39.18 39.18 0 0 0-10.255 12.722 31.64 31.64 0 0 0 0 28.5 39.18 39.18 0 0 0 10.256 12.726l1.19.989-1.024 1.159a45.753 45.753 0 0 1-15.115 11.247 45.38 45.38 0 0 1-9.152 3.083 45.977 45.977 0 0 1-19.8 0 45.399 45.399 0 0 1-17.323-7.938 45.972 45.972 0 0 1-6.949-6.393l-1.021-1.158 1.19-.989a39.18 39.18 0 0 0 10.253-12.722 31.918 31.918 0 0 0 3.392-14.251 31.92 31.92 0 0 0-3.392-14.252 39.18 39.18 0 0 0-10.257-12.72l-1.186-.992 1.025-1.159a45.748 45.748 0 0 1 15.111-11.249c2.932-1.35 6-2.384 9.152-3.083a45.854 45.854 0 0 1 9.902-1.077zM92.5 39.567a42.729 42.729 0 0 0-13.094-9.387 42.694 42.694 0 0 0-35.6 0 42.73 42.73 0 0 0-13.088 9.387 41.644 41.644 0 0 1 9.832 12.676 34.894 34.894 0 0 1 3.7 15.582 34.893 34.893 0 0 1-3.7 15.581 41.639 41.639 0 0 1-9.832 12.675 42.723 42.723 0 0 0 13.094 9.387 42.702 42.702 0 0 0 35.6 0 42.722 42.722 0 0 0 13.094-9.387 41.643 41.643 0 0 1-9.833-12.676 34.638 34.638 0 0 1 0-31.163A41.643 41.643 0 0 1 92.5 39.567z"
  />
  <path
    d="m58.689 60.828.411 1.327c1.075 3.47 1.04 6.549-.1 8.9a5.65 5.65 0 0 1-5.089 3.492 5.5 5.5 0 0 1-4.81-2.889 5.701 5.701 0 0 1 .57-5.987c1.47-2.164 4.119-3.733 7.663-4.539l1.355-.304zm-4.778 10.723a2.738 2.738 0 0 0 2.389-1.8 8.389 8.389 0 0 0 .3-5.306 8.392 8.392 0 0 0-4.444 2.913 2.738 2.738 0 0 0-.4 2.9 2.5 2.5 0 0 0 2.155 1.293zM64.525 60.828l1.355.308c3.544.805 6.193 2.374 7.662 4.537a5.7 5.7 0 0 1 .571 5.988 5.501 5.501 0 0 1-4.809 2.889 5.649 5.649 0 0 1-5.088-3.491c-1.14-2.356-1.175-5.435-.1-8.9l.41-1.331zm4.778 10.723a2.5 2.5 0 0 0 2.16-1.294 2.738 2.738 0 0 0-.4-2.9 8.392 8.392 0 0 0-4.447-2.913 8.39 8.39 0 0 0 .3 5.307 2.737 2.737 0 0 0 2.388 1.799v.001zM63.108 25.048h-3V12h3v13.048zM74.422 46.691l-1.077-1.11a16.335 16.335 0 0 0-23.476 0l-1.077 1.11-1.077-1.11a16.37 16.37 0 0 0-17.514-3.92l-1.062-2.807a19.332 19.332 0 0 1 19.65 3.608 19.333 19.333 0 0 1 25.63 0 19.374 19.374 0 0 1 19.652-3.608l-1.06 2.806a16.336 16.336 0 0 0-17.513 3.92l-1.076 1.111zM87.239 98.037a19.294 19.294 0 0 1-12.817-4.853 19.334 19.334 0 0 1-25.63 0 19.373 19.373 0 0 1-19.653 3.609l1.06-2.806a16.335 16.335 0 0 0 17.514-3.919l1.077-1.11 1.077 1.11a16.336 16.336 0 0 0 23.476 0l1.077-1.11 1.077 1.11a16.368 16.368 0 0 0 17.516 3.916l1.06 2.806a19.267 19.267 0 0 1-6.834 1.247z"
  />
</svg>
