<svg width="124" height="124" fill="currentColor" xmlns="http://www.w3.org/2000/svg">
  <path
    d="M65.27 111.277a12.195 12.195 0 0 1-8.718-3.878 1.463 1.463 0 0 1 .537-2.357 1.432 1.432 0 0 1 1.557.356l.03.031a9.085 9.085 0 0 0 8.78 2.686c4.068-.968 6.822-4.691 6.846-4.729a1.489 1.489 0 0 1 1.41-.66c.045.006 4.813.562 7.644-3.063a8.356 8.356 0 0 0 .772-8.891 1.448 1.448 0 0 1 2.584-1.308 11.265 11.265 0 0 1-1.072 11.982 11.603 11.603 0 0 1-9.454 4.209 16 16 0 0 1-8.06 5.277c-.936.226-1.894.343-2.857.345z"
  />
  <path
    d="M85.419 91.57a1.449 1.449 0 0 1-.364-2.85c2.064-.537 7.386-3.57 8.3-7.889a14.666 14.666 0 0 0-.675-8.336 1.449 1.449 0 0 1 1.352-1.97h18.016a1.449 1.449 0 1 1 0 2.9H96.017c.68 2.62.74 5.363.175 8.011-1.175 5.521-7.358 9.3-10.408 10.09-.12.031-.243.047-.366.047M51.785 110.478a9.026 9.026 0 0 1-2.032-.234 8.686 8.686 0 0 1-6.15-5.2 9.216 9.216 0 0 1-8.54-3.59c-2.563-3.281-2.82-7.182-.745-11.279a1.448 1.448 0 0 1 2.584 1.309c-1.553 3.067-1.4 5.822.444 8.188a6.48 6.48 0 0 0 6.752 2.366c.107-.023.18-.036.215-.04a1.455 1.455 0 0 1 1.417.671c.11.191.202.392.275.6a6.067 6.067 0 0 0 4.394 4.154 6.406 6.406 0 0 0 6.12-2.007l2.125 1.968a9.71 9.71 0 0 1-6.86 3.1"
  />
  <path
    d="M35.61 92.272a1.448 1.448 0 0 1-1.333-.886l-.309-.194a12.568 12.568 0 0 1-6.015-7.3 16.141 16.141 0 0 1 .8-10.472H11.948a1.45 1.45 0 0 1 0-2.9h18.984a1.447 1.447 0 0 1 1.351 1.97c-.066.172-.163.4-.279.665-.751 1.731-2.51 5.784-1.275 9.9a9.706 9.706 0 0 0 4.771 5.68c.404.237.79.504 1.152.8a1.449 1.449 0 0 1 .328 1.766 1.447 1.447 0 0 1-1.376.975M54.244 96.695a2.63 2.63 0 1 1-5.236-.495 2.63 2.63 0 0 1 5.236.495zM45.977 88.441a2.63 2.63 0 1 1-5.236-.495 2.63 2.63 0 0 1 5.236.495zM42.556 77.083a2.63 2.63 0 1 1-5.238-.496 2.63 2.63 0 0 1 5.238.496zM56.27 81.718a2.63 2.63 0 1 1-5.237-.495 2.63 2.63 0 0 1 5.236.495zM77.79 79.018a2.63 2.63 0 1 1-5.238-.496 2.63 2.63 0 0 1 5.238.496zM73.431 88.985a2.63 2.63 0 1 1-5.237-.496 2.63 2.63 0 0 1 5.237.496zM89.972 77.914a2.63 2.63 0 1 1-5.237-.496 2.63 2.63 0 0 1 5.237.496zM80.697 96.695a2.63 2.63 0 1 1-5.236-.495 2.63 2.63 0 0 1 5.236.495zM68.17 99.326a2.629 2.629 0 1 1-5.234-.494 2.629 2.629 0 0 1 5.234.494z"
  />
  <path
    d="M58.619 97.897a1.45 1.45 0 0 1-1.326-2.031c5.928-13.518 2.156-26.509-1.493-39.072-2.858-9.842-5.559-19.138-3.564-28.21a1.448 1.448 0 0 1 2.829.622c-1.836 8.351.764 17.3 3.516 26.78 3.793 13.059 7.715 26.563 1.365 41.044a1.45 1.45 0 0 1-1.327.867z"
  />
  <path
    d="M54.063 45.924c-.157 0-.313-.026-.462-.076-.108-.036-10.762-3.771-9.71-16.381C44.928 17 58.997 12.735 59.597 12.56a1.435 1.435 0 0 1 1.18.165 1.449 1.449 0 0 1 .657.993c.09.562 2.216 13.826 1.041 20.547-1.278 7.327-7.378 11.269-7.637 11.435a1.451 1.451 0 0 1-.776.224zm4.767-29.999c-3.442 1.421-11.368 5.564-12.052 13.784-.727 8.719 5.075 12.188 7.09 13.122a15.4 15.4 0 0 0 5.754-9.063c.852-4.882-.258-14.026-.792-17.843z"
  />
  <path
    d="M57.932 51.106c-.772 0-1.57-.04-2.394-.118a1.449 1.449 0 0 1 .277-2.884c4.7.455 8.384-.569 10.926-3.032 2.983-2.892 3.864-7.214 4.111-9.963a30.65 30.65 0 0 1-9.666 2.975 1.449 1.449 0 0 1-.34-2.877c.067-.008 6.71-.83 10.625-3.94a1.449 1.449 0 0 1 2.346 1.037c.026.38.567 9.378-5.046 14.835-2.713 2.638-6.353 3.968-10.84 3.968"
  />
  <path
    d="M56.078 46.679c-.173 0-.35 0-.533-.009a1.45 1.45 0 1 1 .1-2.9 7.6 7.6 0 0 0 4.3-.849 1.459 1.459 0 0 1 2 .385 1.439 1.439 0 0 1-.354 1.995 9.884 9.884 0 0 1-5.52 1.374"
  />
  <path
    d="M49.89 51.535c-3.508.08-6.985-.66-10.155-2.163-7.944-4.089-8.425-14.848-8.442-15.3a1.449 1.449 0 0 1 1.624-1.491c.4.049 9.9 1.253 15.48 5.449a1.449 1.449 0 0 1-1.744 2.314c-3.6-2.709-9.344-4.054-12.26-4.593.464 2.918 1.962 8.626 6.667 11.048 5.733 2.951 13.46 1.457 13.537 1.441a1.449 1.449 0 0 1 .571 2.841c-1.742.313-3.51.467-5.28.458"
  />
  <path
    d="M54.239 48.518c-.067 0-.134-.004-.2-.014a24.159 24.159 0 0 1-8.79-3.163 1.449 1.449 0 0 1 1.559-2.441 21.57 21.57 0 0 0 7.633 2.735 1.448 1.448 0 0 1-.2 2.883"
  />
</svg>
