<svg width="124" height="124" fill="currentColor" xmlns="http://www.w3.org/2000/svg">
  <path
    d="M32.495 100.559l-.776-2.9 74.733-20.025-13.656-50.96-68.33 18.309 2.729 10.18-2.9.777-3.5-13.077L94.917 23l15.208 56.758-77.63 20.801z"
  />
  <path
    d="M36.115 58.621l17.05-4.57 5.28 19.69-17.05 4.57-5.28-19.69zm14.93-.896L39.79 60.742l3.726 13.895 11.254-3.018-3.726-13.894zm8.873.697l-.776-2.9 31.178-8.349.776 2.9-31.178 8.349zm2.961 11.052l-.776-2.9 31.177-8.349.776 2.9-31.177 8.349zM34.678 53.342l-.776-2.9 53.456-14.321.776 2.9-53.456 14.321zM43.562 86.498l-.776-2.9 53.456-14.321.776 2.9-53.456 14.321z"
  />
  <path
    d="M30.774 100.787a6.627 6.627 0 01-6.4-4.894L14 57.164l12.811-3.432L37.187 92.46a6.634 6.634 0 01-6.413 8.327zm-13.1-41.5l9.6 35.83a3.63 3.63 0 006.647.852 3.573 3.573 0 00.368-2.732l-9.6-35.83-7.015 1.88z"
  />
</svg>
