<svg width="124" height="124" fill="currentColor" xmlns="http://www.w3.org/2000/svg">
  <path
    d="M47.2 43.3 46 21.9l3-.2 1.2 21.4-3 .2zM34.3 43.2l1.2-21.4 3 .2-1.2 21.4-3-.2z"
    fill="currentColor"
  />
  <path
    d="M58.8 112.3H26.1l-1.5-52.4c-.2-5.7 1.5-10.6 4.9-14 1.7-1.7 3.7-3.1 6-3.9 2.2-.8 4.5-1.3 6.9-1.3h.1c4.8 0 9.4 1.9 12.8 5.3 3.4 3.5 5.1 8.3 5 13.9l-1.5 52.4zm-29.8-3h26.9l1.4-49.5c.2-4.8-1.3-8.8-4.1-11.7-2.8-2.8-6.7-4.4-10.7-4.4h-.1c-4-.1-7.9 1.5-10.7 4.3-1.3 1.4-2.4 3.1-3 4.9-.8 2.2-1.1 4.6-1 7l1.3 49.4z"
  />
  <path
    d="M35.7 59.2h-3c-.1-2.9 1-5.7 2.9-7.7.9-.9 2-1.6 3.2-2.1 1.2-.5 2.4-.7 3.7-.7v3c-1.8 0-3.5.7-4.7 1.9-1.5 1.5-2.2 3.5-2.1 5.6zM58.6 71H26.4v-3h32.2v3zM57.6 99.9H27.4v-3h30.2v3zM34.2 11.6h16.6v11.8H34.2V11.6zm13.6 3H37.2v5.8h10.6v-5.8zM91.8 112.3H73.7v-3h18.1v3zM82.7 87.3c-2.1 0-4.2-.5-6.1-1.5-2-1-3.8-2.5-5.2-4.3-1.1-1.5-2.1-3.1-2.8-4.8-.8-2-1.3-4-1.6-6.1-.7-5.4-.3-10.9 1-16.2l.3-1.2H97l.3 1.2c1.4 5.3 1.7 10.8 1 16.2-.3 2.1-.8 4.2-1.6 6.1-.7 1.7-1.6 3.3-2.8 4.8-1.4 1.8-3.2 3.3-5.2 4.3-1.8 1-3.9 1.5-6 1.5zm-12-31c-1.1 4.6-1.3 9.3-.7 13.9.4 3.5 1.7 6.7 3.8 9.5 1.1 1.5 2.6 2.6 4.2 3.5 3 1.5 6.5 1.5 9.5 0 1.6-.8 3.1-2 4.2-3.5 2.1-2.8 3.4-6.1 3.8-9.5.6-4.7.3-9.4-.7-13.9H70.7z"
  />
  <path
    d="M79.4 78.6c-4.1-3.7-5.8-10-4.6-17.5l3 .5c-1 6.6.3 11.8 3.6 14.9l-2 2.1zM84.2 110.8h-3V85.6h3v25.2z"
  />
</svg>
