<svg width="124" height="124" fill="none" xmlns="http://www.w3.org/2000/svg"><mask id="a" style="mask-type:luminance" maskUnits="userSpaceOnUse" x="42" y="10" width="40" height="104"><path d="M82 10H42v103.403h40V10z" fill="#fff"/></mask><g mask="url(#a)"><mask id="b" style="mask-type:luminance" maskUnits="userSpaceOnUse" x="42" y="10" width="40" height="104"><path d="M82 10H42v103.403h40V10z" fill="#fff"/></mask><g mask="url(#b)"><path d="M79.54 86.4a22.763 22.763 0 0 1-3.7-13.916c.143-2.506.714-4.97 1.688-7.284.378-.688.83-1.333 1.346-1.924.373-.463.75-.935 1.088-1.441a1.2 1.2 0 0 0 .728-1.353c.09-.219.168-.443.232-.671a1.2 1.2 0 0 0-.047-.766c.33-2.322.258-7.469.126-13.843-.042-2.037-.082-3.961-.082-5.294a5.163 5.163 0 0 0-2.688-4.536 1.201 1.201 0 0 0-.675-.648 7.13 7.13 0 0 0-1.923-3.911l-7.063-7.351V20.6h.342a1.2 1.2 0 0 0 1.195-1.195v-8.21A1.2 1.2 0 0 0 68.912 10H55.089a1.2 1.2 0 0 0-1.195 1.195v8.213a1.2 1.2 0 0 0 1.195 1.192h.342v2.86l-7.063 7.348a7.13 7.13 0 0 0-1.923 3.911 1.2 1.2 0 0 0-.675.648 5.163 5.163 0 0 0-2.688 4.533c0 1.333-.04 3.256-.082 5.294-.132 6.374-.2 11.522.126 13.843a1.2 1.2 0 0 0-.047.767c.064.228.141.451.232.67a1.194 1.194 0 0 0 .728 1.353c.338.506.715.978 1.088 1.441.517.594.968 1.242 1.346 1.932a21.99 21.99 0 0 1 1.684 7.28A22.76 22.76 0 0 1 44.46 86.4c-2.625 4.077-2.525 7.941-2.418 12.032.022.839.044 1.705.045 2.592a5.153 5.153 0 0 0 3.436 4.876 9.224 9.224 0 0 0 9.007 7.508h14.942a9.22 9.22 0 0 0 9.006-7.508 5.153 5.153 0 0 0 3.436-4.871c0-.887.023-1.754.045-2.592.106-4.091.206-7.956-2.418-12.037zm-10.068 24.614H54.529a6.82 6.82 0 0 1-6.5-4.875h27.938a6.823 6.823 0 0 1-6.5 4.875M50.535 72.25a24.1 24.1 0 0 0-1.92-8.112c-.42-.795-.929-1.54-1.515-2.223h3.685c.168.389.348.761.527 1.128.328.629.604 1.283.825 1.957.61 2.431.959 4.921 1.039 7.427a35.635 35.635 0 0 1-1.85 13.036c-.132.385-.268.767-.412 1.139-.282.731-.52 1.478-.714 2.238h-.054a2.176 2.176 0 0 0-2.041 1.4l-1.217 3.124-1.53-2.35a1.19 1.19 0 0 0-.31-.322c.337-1.06.815-2.068 1.42-3a25.22 25.22 0 0 0 4.067-15.442zm5.748-58.94v-.921h11.435v5.824H56.283V13.31zm9.9 8.512h-8.364V20.6h8.362l.002 1.222zm-10.354 4.672.855-.889 1.149-1.195.19-.2h7.954l.19.2 1.15 1.19.855.889 5.74 5.969c.582.61.992 1.362 1.188 2.182h-4.027a1.172 1.172 0 0 0-.735 0h-4.8a1.154 1.154 0 0 0-.73 0h-5.616a1.154 1.154 0 0 0-.73 0h-4.8a1.172 1.172 0 0 0-.734 0H48.9a4.753 4.753 0 0 1 1.19-2.177l5.739-5.969zM73.466 72.25a25.22 25.22 0 0 0 4.065 15.438c.606.932 1.083 1.94 1.419 3a1.188 1.188 0 0 0-.311.323l-1.64 2.531-1.29-3.307a2.174 2.174 0 0 0-1.91-1.392 19.677 19.677 0 0 0-.716-2.233c-.144-.372-.28-.754-.412-1.139a35.628 35.628 0 0 1-1.85-13.036c.08-2.506.429-4.996 1.039-7.427.22-.675.497-1.33.825-1.96.179-.367.359-.739.527-1.128H76.9a12.174 12.174 0 0 0-1.513 2.223 24.11 24.11 0 0 0-1.92 8.112m6.1 26.12a175.24 175.24 0 0 0-.036 1.7l-1.472-3.788L79.549 94c.1 1.374.063 2.809.022 4.372m-1.4 5.041a2.778 2.778 0 0 1-.888.338h-8.346l.132-.338 1.88-4.835 1.066-2.743.13-.334.84-2.163.24-.616.445-1.142.817 2.1.906 2.33 1.066 2.743 1.792 4.61.02.05h-.1zM55.56 72.3a37.217 37.217 0 0 0-1.133-7.969A14.978 14.978 0 0 0 53.46 62l-.041-.084h3.754c.046.277.094.548.14.815.123.685.237 1.332.317 2.065.252 2.32.34 5.277.39 7.594a95.363 95.363 0 0 1-.843 14.484 48.38 48.38 0 0 0-.378 3.81 1.191 1.191 0 0 0-1.682.329l-1.644 2.529-1.188-3.056c.194-1.028.482-2.037.858-3.013A38.036 38.036 0 0 0 55.562 72.3zm-3.054-32.4a3.98 3.98 0 0 1 .72-2.461.914.914 0 0 1 .4-.31c.084-.024.165-.058.24-.1h3.28A15.261 15.261 0 0 0 56.9 39.9v.909h-4.4V39.9m11.9-2.871c.23.94.335 1.906.31 2.874v.909h-5.418v-.909c-.025-.968.079-1.934.31-2.874H64.4zm5.734 0c.076.042.156.075.24.1.16.064.299.171.4.31.505.718.759 1.584.72 2.461v.909H67.1V39.9c.01-.964-.072-1.926-.244-2.874l3.278.003zm8.592 16.128H74c0-1.2-.008-2.478-.021-3.783h4.71c.02 1.286.034 2.575.034 3.783M70.54 62a14.992 14.992 0 0 0-.968 2.327 37.227 37.227 0 0 0-1.134 7.973 38.037 38.037 0 0 0 2.419 15.178c.34.877.607 1.78.8 2.7-.01.022-.02.043-.028.065l-1.22 3.123-1.53-2.352a1.193 1.193 0 0 0-1.678-.332 50.362 50.362 0 0 0-.378-3.808c-.648-4.8-.93-9.642-.843-14.484.049-2.317.138-5.274.39-7.594.08-.733.194-1.38.316-2.065.048-.268.1-.538.14-.815h3.755L70.54 62zm-17.966-2.757a18.492 18.492 0 0 1-.134-1.935 81.628 81.628 0 0 1-.038-1.762h4.463a118.7 118.7 0 0 0 .057 3.684 1.21 1.21 0 0 0-.028.3h-4.311a1.2 1.2 0 0 0-.01-.284m-.164-9.869h4.458c0 1.294-.007 2.578-.007 3.783H52.39c0-1.21.008-2.5.02-3.783zm19.2 3.783h-4.47c0-1.205 0-2.489-.007-3.783h4.458c.012 1.285.019 2.573.019 3.783zm-.05 4.151c-.01.647-.056 1.293-.134 1.935-.014.094-.017.19-.01.284h-4.31a1.21 1.21 0 0 0-.028-.3c.032-.768.049-2.079.057-3.684H71.6a88.8 88.8 0 0 1-.038 1.762m-12.3-7.934h5.485c0 1.3.008 2.581.008 3.783h-5.5c0-1.2-.001-2.488.007-3.783zm.065 9.986c-.038-.67-.058-2.055-.066-3.814h5.49c-.007 1.76-.027 3.146-.065 3.818a1.216 1.216 0 0 0 0 .162h-5.37a1.293 1.293 0 0 0 0-.167m5.4-14.132c0 .573.006 1.162.009 1.757h-5.458c0-.6.005-1.184.008-1.757 0-.7.006-1.381.009-2.026h5.433c0 .644.006 1.324.009 2.026m-5.183 41.982c.666-4.928.955-9.898.866-14.87-.05-2.366-.141-5.39-.4-7.8-.088-.813-.216-1.531-.34-2.225a42.925 42.925 0 0 1-.07-.4h4.8c-.022.133-.046.267-.07.4-.122.694-.25 1.412-.338 2.225-.262 2.411-.353 5.436-.4 7.8-.09 4.972.2 9.942.866 14.87.249 1.818.397 3.648.444 5.483l-.955-2.457a2.19 2.19 0 0 0-4.083 0l-.747 1.923a48.33 48.33 0 0 1 .425-4.948m7.783 11.2c.007-1.282.014-2.509 0-3.708l.549-.844 1.465 2.253-1.557 4.005-.463-1.193v-.513m4.218-53.172.022 1.748h-4.435c0-.6-.005-1.191-.008-1.768 0-.7-.006-1.374-.01-2.015h4.414l.024 2.035M53 43.2h3.9c0 .641-.006 1.317-.01 2.015 0 .577-.004 1.169-.007 1.768h-4.447l.02-1.748c.01-.7.018-1.382.026-2.035H53zm-7.69 6.174h4.71a384.367 384.367 0 0 0-.02 3.783h-4.724c0-1.208.015-2.5.035-3.783zm10.808 44.482.553.85c-.01 1.2 0 2.423 0 3.7v.034l-.65 1.671-1.487-3.828 1.584-2.427zm17.729-34.747c.078-.817.12-2.063.14-3.563H78.7c.016 1.2-.075 2.398-.272 3.582a1.19 1.19 0 0 0-.033.4h-4.49a1.213 1.213 0 0 0-.061-.418m4.765-13.863.035 1.738h-4.69l-.022-1.778c-.01-.688-.017-1.362-.024-2.005h4.663l.04 2.045m-33.223 0c.015-.7.029-1.389.04-2.045h4.664l-.024 2.005-.022 1.778h-4.693l.035-1.739m.18 13.881a20.212 20.212 0 0 1-.268-3.581h4.714c.02 1.5.062 2.746.14 3.563a1.22 1.22 0 0 0-.061.418H45.6c.012-.134 0-.27-.033-.4m11.74 44.284.466-1.2 1.293-3.328.12-.309 1.066-2.743 1.653-4.254 1.723 4.432 1.066 2.743.237.61 1.108 2.851.465 1.2.132.338h-9.46l.13-.34zm16.579-62.6v-.909a6.982 6.982 0 0 0-.587-2.874h2.565c.115.065.24.11.37.134a2.778 2.778 0 0 1 2.3 2.741v.909l-4.648-.001zM45.47 39.9a2.779 2.779 0 0 1 2.3-2.741c.13-.024.256-.069.37-.134H50.7a6.983 6.983 0 0 0-.582 2.875v.909h-4.652V39.9m.35 56.2-1.357 3.513c-.008-.421-.02-.836-.03-1.243-.04-1.562-.076-3 .023-4.369l1.365 2.099zm-.211 7.16 1.82-4.685 1.067-2.743 1.054-2.712.6-1.542.6 1.545.254.651.857 2.2.012.032 1.066 2.743 1.81 4.658.132.338h-8.158a2.779 2.779 0 0 1-.888-.338h-.285l.059-.147z" fill="#2D2926"/></g></g></svg>