<svg
  xmlns="http://www.w3.org/2000/svg"
  width="150"
  height="150"
  viewBox="0 0 150 150"
  fill="currentColor"
>
  <path
    d="M115.7,108.8V69.9h-13.8l1.5-2.7c0.8-1.4,1.2-3.1,1.2-4.7c0-2.3-1.5-5.4-4.6-9.4c-1.4-1.9-3.8-4.5-5.3-6.1
	c-1.5,1.6-3.9,4.2-5.3,6.1c-3,4-4.6,7.1-4.6,9.4c0,1.6,0.4,3.3,1.2,4.7l1.5,2.7H76.2V48H62.5l1.5-2.7c0.8-1.5,1.3-3.2,1.3-4.9
	c0-2.3-1.6-5.5-4.7-9.6c-1.4-1.9-3.9-4.4-5.4-5.8c-1.5,1.4-3.9,3.9-5.4,5.8c-3.1,4.1-4.7,7.3-4.7,9.6c0,1.7,0.4,3.4,1.3,4.9L48,48
	H34.3v60.8h-9.7v2.3c0,7.7,6.2,13.9,13.9,13.9h72.9c7.7,0,13.9-6.2,13.9-13.9v-2.3H115.7z M87.3,62.5c0-2.9,4.2-8.2,6-10.4l1.4-1.6
	l1.4,1.6c2.8,3.3,6,7.9,6,10.4c0,4.1-3.3,7.4-7.4,7.4C90.6,69.9,87.3,66.6,87.3,62.5z M76.2,72.4h37v15.7c0,2.8-2.3,5.1-5.1,5.1
	c-2.8,0-5.1-2.3-5.1-5.1v-5.5H77.3l-0.5-0.5v3.8c4,5.4,6,8.9,6,10.5c0,4.3-3.5,7.8-7.8,7.8c-4.3,0-7.8-3.5-7.8-7.8
	c0-3.2,4.9-9.3,6.5-11l3-3.5l-0.3-0.4V72.4z M82.3,104.1l1.6-2.7c0.9-1.6,1.4-3.3,1.4-5.1c0-2.1-1.2-4.9-3.7-8.4l-2-2.9h21.2v3.1
	c0,4.1,3.4,7.5,7.5,7.5c0.9,0,1.8-0.2,2.6-0.5l2.5-0.9v14.6h-2.8c-3,0-5.9,1-8.3,2.8l-2.9,2.2v-9.7H82.3z M73.8,81.4l-0.5,0.5
	c-0.9,1-2.4,2.7-3.8,4.5c-3.2,4.2-4.8,7.5-4.8,9.8c0,1.8,0.5,3.5,1.4,5.1l1.6,2.7H50.9v9.7l-2.9-2.2c-2.4-1.8-5.3-2.8-8.3-2.8h-2.8
	V76.6l2.5,0.9c0.8,0.3,1.7,0.5,2.6,0.5c4.1,0,7.5-3.4,7.5-7.5v-5.7h24.5V81.4z M47.7,40.4c0-3.1,4.8-9,6.2-10.7l1.4-1.6l1.4,1.6
	c1.5,1.7,6.2,7.6,6.2,10.7c0,4.2-3.4,7.6-7.6,7.6C51.1,48,47.7,44.6,47.7,40.4z M36.8,50.5h37v11.9H46.9v8.1c0,2.8-2.3,5.1-5.1,5.1
	c-2.8,0-5.1-2.3-5.1-5.1V50.5z M38.5,122.6c-5.4,0-10.1-3.8-11.2-9.1l-0.5-2.2h12.8c5.4,0,10.1,3.8,11.2,9.1l0.5,2.2H38.5z
	 M96.7,122.6H53.3v-16h43.3V122.6z M122.7,113.5c-1.1,5.3-5.8,9.1-11.2,9.1H98.7l0.5-2.2c1.1-5.3,5.8-9.1,11.2-9.1h12.8L122.7,113.5
	z"
  />
</svg>
