<svg width="124" height="124" fill="none" xmlns="http://www.w3.org/2000/svg"><mask id="a" style="mask-type:luminance" maskUnits="userSpaceOnUse" x="0" y="12" width="124" height="101"><path d="M123.226 12.5H.5v99.946h122.726V12.5z" fill="#fff"/></mask><g mask="url(#a)"><mask id="b" style="mask-type:luminance" maskUnits="userSpaceOnUse" x="0" y="12" width="42" height="101"><path d="M41.582 12.5H.5v99.946h41.082V12.5z" fill="#fff"/></mask><g mask="url(#b)" fill="#2D2926"><path d="M10.23 112.846c-.549.001-1.098-.037-1.642-.114a9.727 9.727 0 0 1-4.577-1.862 10.612 10.612 0 0 1-3.91-8.764V52.872a23.484 23.484 0 0 1 .961-7.555c.77-2.2 2.015-4.204 3.647-5.869l4.557-4.942a4.359 4.359 0 0 0 1.458-3.737V27.28h3v3.491a7.239 7.239 0 0 1-2.223 5.735l-.02.022-4.566 4.955a13.034 13.034 0 0 0-3.008 4.788 20.743 20.743 0 0 0-.806 6.6v49.235a9.353 9.353 0 0 0 .756 3.862 6.393 6.393 0 0 0 1.967 2.507c1.863 1.413 4.479 1.745 7.364.935.744-.208 1.458-.451 2.148-.685a17.13 17.13 0 0 1 5.705-1.2 17.15 17.15 0 0 1 5.7 1.2c.69.234 1.4.477 2.148.685 2.885.809 5.5.477 7.365-.936a6.4 6.4 0 0 0 1.968-2.507 9.35 9.35 0 0 0 .76-3.861V52.872a20.734 20.734 0 0 0-.807-6.6 13.034 13.034 0 0 0-3.007-4.787l-4.587-4.979a7.242 7.242 0 0 1-2.225-5.735V27.28h3v3.491a4.361 4.361 0 0 0 1.46 3.735l4.558 4.94a15.866 15.866 0 0 1 3.646 5.868c.73 2.45 1.055 5.002.962 7.556v49.236a10.612 10.612 0 0 1-3.911 8.759 9.737 9.737 0 0 1-4.577 1.862 13.16 13.16 0 0 1-5.411-.428 43.101 43.101 0 0 1-2.3-.733 14.384 14.384 0 0 0-4.74-1.045c-1.628.077-3.231.43-4.741 1.045-.728.247-1.481.5-2.3.733a13.948 13.948 0 0 1-3.771.547z"/><path d="M8.51 12.1h25.062l.4 16.734H8.115L8.51 12.1zm22.132 3h-19.2l-.256 10.735h19.707L30.642 15.1zM14.246 60.268H1.622v-3h12.624v3zM14.246 72.623H1.622v-3h12.624v3zM14.246 84.977H1.622v-3h12.624v3zM14.246 97.332H1.622v-3h12.624v3zM33.383 60.268h-5.855v-3h5.855v3zM33.383 72.623h-5.855v-3h5.855v3zM33.383 84.977h-5.855v-3h5.855v3zM33.383 97.332h-5.855v-3h5.855v3z"/></g><mask id="c" style="mask-type:luminance" maskUnits="userSpaceOnUse" x="54" y="35" width="70" height="78"><path d="M123.227 35.144h-69.1v77.301h69.1V35.144z" fill="#fff"/></mask><g mask="url(#c)" fill="#2D2926"><path d="M121.863 36.51c-1.17-1.165-2.873-1.59-5.063-1.254-3.728.574-8.763 3.39-13.815 7.725a51.53 51.53 0 0 0-11.89 14.376 21.942 21.942 0 0 0-1.68 4.094 9.824 9.824 0 0 0-.413 3.637h-31.46a3.4 3.4 0 0 0-2.39.976 3.453 3.453 0 0 0 .618 5.4v34.607a3.44 3.44 0 0 0 1.773 6.374h41.06a3.397 3.397 0 0 0 2.39-.976c.373-.368.657-.815.831-1.309.174-.494.234-1.021.174-1.541a3.45 3.45 0 0 0-1.622-2.55V71.462a3.457 3.457 0 0 0 1.265-4.517 52.336 52.336 0 0 0 13.793-11.6c4.313-5.039 7.113-10.06 7.682-13.78.334-2.186-.087-3.885-1.253-5.05M58.721 71.958h38.706v4.973H58.72V71.96zm0 7.925h38.706v2.423H58.72v-2.423zm0 5.375h38.706v2.423H58.72V85.26zm0 5.375h38.706v2.423H58.72v-2.423zm0 5.375h38.706v2.423H58.72V96.01zm0 5.375h38.706v4.19H58.72v-4.19zM57.543 68.04h41.06a.483.483 0 0 1 0 .967h-41.06a.484.484 0 0 1 0-.967zm0 40.486h41.06a.485.485 0 0 1 .328.818.485.485 0 0 1-.328.149h-41.06a.485.485 0 0 1-.328-.818.485.485 0 0 1 .328-.149zm45.4-45.843a32.323 32.323 0 0 1-3.987 2.326l-.171.085c-.174-.005-.57-.006-1.678-.006h-5.123c-.283-1.376.343-3.706 1.729-6.368a39.892 39.892 0 0 1 4.889-7.128 56.928 56.928 0 0 1 6.493-6.534 42.927 42.927 0 0 1 6.825-4.843 15.426 15.426 0 0 1 5.807-2.088 2.548 2.548 0 0 1 2.046.471 2.552 2.552 0 0 1 .472 2.047 13.312 13.312 0 0 1-1.342 4.325 43.814 43.814 0 0 1-8.576 11.546 50.497 50.497 0 0 1-7.384 6.167z"/><path d="M113.255 41.955a1.467 1.467 0 0 0-1.13-.007 34.406 34.406 0 0 0-9.56 6.808 35.685 35.685 0 0 0-6.925 9.668 1.475 1.475 0 1 0 2.723 1.139 32.933 32.933 0 0 1 6.289-8.72 31.648 31.648 0 0 1 8.585-6.161 1.48 1.48 0 0 0 .919-1.358 1.479 1.479 0 0 0-.901-1.369z"/></g></g></svg>