<svg width="124" height="124" fill="currentColor" xmlns="http://www.w3.org/2000/svg">
  <path
    d="M90.082 102.517h-55.95a6.64 6.64 0 0 1-6.632-6.632V27.133a6.64 6.64 0 0 1 6.632-6.633h55.95a6.64 6.64 0 0 1 6.633 6.633v68.752a6.64 6.64 0 0 1-6.633 6.632zm-55.95-80.076a4.7 4.7 0 0 0-4.691 4.692v68.752a4.7 4.7 0 0 0 4.691 4.691h55.95a4.697 4.697 0 0 0 4.691-4.691V27.133a4.7 4.7 0 0 0-4.691-4.691l-55.95-.001z"
  />
  <path
    d="M90.082 103.017h-55.95A7.14 7.14 0 0 1 27 95.885V27.133A7.141 7.141 0 0 1 34.132 20h55.95a7.141 7.141 0 0 1 7.133 7.133v68.752a7.142 7.142 0 0 1-7.133 7.132zM34.132 21A6.14 6.14 0 0 0 28 27.133v68.752a6.14 6.14 0 0 0 6.132 6.133h55.95a6.143 6.143 0 0 0 6.133-6.133V27.133A6.14 6.14 0 0 0 90.082 21h-55.95zm55.95 80.076h-55.95a5.198 5.198 0 0 1-5.191-5.191V27.133a5.2 5.2 0 0 1 5.191-5.192h55.95a5.2 5.2 0 0 1 5.191 5.191v68.753a5.2 5.2 0 0 1-5.191 5.191zm-55.95-78.135a4.2 4.2 0 0 0-4.191 4.192v68.752a4.2 4.2 0 0 0 4.191 4.191h55.95a4.199 4.199 0 0 0 4.191-4.191V27.133a4.2 4.2 0 0 0-4.191-4.191l-55.95-.001z"
  />
  <path
    d="M95.745 39.009H28.471a.971.971 0 0 1-.971-.971V27.133a6.64 6.64 0 0 1 6.632-6.633h55.95a6.64 6.64 0 0 1 6.633 6.633v10.905a.971.971 0 0 1-.97.971zm-66.301-1.941h65.33v-9.935a4.7 4.7 0 0 0-4.691-4.691H34.132a4.7 4.7 0 0 0-4.691 4.691l.003 9.935z"
  />
  <path
    d="M95.745 39.509H28.471A1.472 1.472 0 0 1 27 38.038V27.133A7.141 7.141 0 0 1 34.132 20h55.95a7.141 7.141 0 0 1 7.133 7.133v10.905a1.472 1.472 0 0 1-1.47 1.471zM34.132 21A6.14 6.14 0 0 0 28 27.133v10.905a.47.47 0 0 0 .471.471h67.274a.47.47 0 0 0 .471-.471V27.133A6.14 6.14 0 0 0 90.082 21h-55.95zm61.142 16.567H28.941V27.133a5.2 5.2 0 0 1 5.191-5.192h55.95a5.2 5.2 0 0 1 5.191 5.191l.001 10.435zm-65.333-1h64.333v-9.434a4.2 4.2 0 0 0-4.191-4.191H34.132a4.2 4.2 0 0 0-4.191 4.191v9.434z"
  />
  <path
    d="M40.143 34.365a4.61 4.61 0 1 1 4.61-4.61 4.616 4.616 0 0 1-4.61 4.61zm0-7.28a2.67 2.67 0 1 0 0 5.338 2.67 2.67 0 0 0 0-5.338z"
  />
  <path
    d="M40.143 34.865a5.11 5.11 0 1 1 0-10.22 5.11 5.11 0 0 1 0 10.22zm0-9.221a4.11 4.11 0 1 0 0 8.219 4.11 4.11 0 0 0 0-8.219zm0 7.28a3.169 3.169 0 1 1 0-6.338 3.169 3.169 0 0 1 0 6.338zm0-5.338a2.17 2.17 0 1 0 0 4.339 2.17 2.17 0 0 0 0-4.339zM52.295 34.365a4.61 4.61 0 1 1 4.61-4.61 4.615 4.615 0 0 1-4.61 4.61zm0-7.28a2.669 2.669 0 1 0 0 5.338 2.669 2.669 0 0 0 0-5.338z"
  />
  <path
    d="M52.295 34.865a5.11 5.11 0 1 1 0-10.22 5.11 5.11 0 0 1 0 10.22zm0-9.221a4.11 4.11 0 1 0 0 8.22 4.11 4.11 0 0 0 0-8.22zm0 7.28a3.17 3.17 0 1 1 0-6.339 3.17 3.17 0 0 1 0 6.339zm0-5.338a2.17 2.17 0 1 0 0 4.339 2.17 2.17 0 0 0 0-4.339zM89.368 34.365H69.287a.971.971 0 0 1-.971-.971v-7.28a.971.971 0 0 1 .97-.971H89.37a.97.97 0 0 1 .97.971v7.284a.971.971 0 0 1-.97.971m-19.111-1.941h18.14v-5.343H70.258v5.343z"
  />
  <path
    d="M89.368 34.865H69.287a1.472 1.472 0 0 1-1.471-1.467v-7.28a1.472 1.472 0 0 1 1.47-1.471H89.37a1.472 1.472 0 0 1 1.47 1.471v7.28a1.472 1.472 0 0 1-1.471 1.467zm-20.082-9.221a.47.47 0 0 0-.471.471v7.283a.471.471 0 0 0 .47.471h20.083a.47.47 0 0 0 .467-.471v-7.28a.47.47 0 0 0-.471-.471l-20.078-.003zm19.61 7.28h-19.14v-6.339h19.142l-.001 6.339zm-18.14-1h17.14v-4.339h-17.14v4.339zM62.108 86.703a17.287 17.287 0 1 1 17.287-17.287 17.307 17.307 0 0 1-17.287 17.287zm0-32.633a15.345 15.345 0 1 0 15.346 15.346A15.363 15.363 0 0 0 62.108 54.07z"
  />
  <path
    d="M62.108 87.203a17.788 17.788 0 1 1 17.787-17.787 17.807 17.807 0 0 1-17.787 17.787zm0-34.574a16.787 16.787 0 1 0 16.787 16.787 16.806 16.806 0 0 0-16.787-16.787zm0 32.633a15.847 15.847 0 1 1 15.846-15.846 15.864 15.864 0 0 1-15.846 15.846zm0-30.692a14.846 14.846 0 1 0 14.846 14.846A14.863 14.863 0 0 0 62.108 54.57z"
  />
  <path
    d="M72.985 71.771a4.436 4.436 0 0 1-3.413-1.678 2.423 2.423 0 0 0-4.053 0 4.309 4.309 0 0 1-6.825 0 2.422 2.422 0 0 0-4.052 0 4.309 4.309 0 0 1-6.825 0 2.605 2.605 0 0 0-2.026-1.1.97.97 0 1 1 0-1.941 4.433 4.433 0 0 1 3.412 1.678 2.422 2.422 0 0 0 4.052 0 4.309 4.309 0 0 1 6.825 0 2.422 2.422 0 0 0 4.052 0 4.309 4.309 0 0 1 6.825 0 2.423 2.423 0 0 0 4.054 0 4.434 4.434 0 0 1 3.412-1.678.97.97 0 1 1 0 1.941 2.606 2.606 0 0 0-2.026 1.1 4.434 4.434 0 0 1-3.412 1.678z"
  />
  <path
    d="M72.985 72.271a4.92 4.92 0 0 1-3.769-1.827c-.6-.61-.928-.946-1.67-.946-.742 0-1.071.336-1.669.945a4.8 4.8 0 0 1-7.539 0c-.6-.61-.927-.945-1.669-.945s-1.07.335-1.668.944a4.8 4.8 0 0 1-7.54 0c-.6-.61-.927-.945-1.669-.945a1.47 1.47 0 1 1 0-2.941 4.917 4.917 0 0 1 3.769 1.828c.6.61.927.945 1.669.945s1.071-.336 1.669-.945a4.801 4.801 0 0 1 7.538 0c.6.61.928.946 1.67.946.742 0 1.071-.336 1.669-.945a4.8 4.8 0 0 1 7.539 0c.6.61.928.946 1.67.946.742 0 1.072-.336 1.67-.946a4.92 4.92 0 0 1 3.769-1.827 1.47 1.47 0 1 1 0 2.941c-.742 0-1.071.336-1.669.945a4.917 4.917 0 0 1-3.77 1.827zm-5.439-3.773a3.066 3.066 0 0 1 2.384 1.246 3.821 3.821 0 0 0 6.112 0 3.068 3.068 0 0 1 2.383-1.245.472.472 0 1 0 0-.941 3.962 3.962 0 0 0-3.055 1.527 2.9 2.9 0 0 1-4.768 0 3.819 3.819 0 0 0-6.111 0 2.9 2.9 0 0 1-4.767 0 3.818 3.818 0 0 0-6.11 0 2.9 2.9 0 0 1-4.767 0 3.96 3.96 0 0 0-3.055-1.528.472.472 0 0 0-.187.912c.06.022.123.032.187.029a3.064 3.064 0 0 1 2.382 1.245 3.82 3.82 0 0 0 6.111 0 2.902 2.902 0 0 1 4.766 0 3.82 3.82 0 0 0 6.111 0 3.067 3.067 0 0 1 2.384-1.243v-.002z"
  />
  <path
    d="M62.108 92.351a22.811 22.811 0 1 1 22.142-28.3h3.965a.971.971 0 0 1 .971.971v9.037a.971.971 0 0 1-.971.971h-3.966a22.907 22.907 0 0 1-22.141 17.321zm0-43.678A20.868 20.868 0 1 0 82.527 73.86a.97.97 0 0 1 .95-.771h3.767v-7.1h-3.768a.97.97 0 0 1-.95-.771 20.95 20.95 0 0 0-20.419-16.55"
  />
  <path
    d="M62.108 92.851a23.31 23.31 0 1 1 0-46.619c2.62 0 5.22.445 7.689 1.317a23.55 23.55 0 0 1 11.83 9.269 23.011 23.011 0 0 1 3.01 6.734h3.578a1.472 1.472 0 0 1 1.47 1.471v9.037a1.472 1.472 0 0 1-1.47 1.471h-3.578a23.011 23.011 0 0 1-3.01 6.734 23.55 23.55 0 0 1-11.831 9.269 23.065 23.065 0 0 1-7.688 1.317zm0-45.619a22.31 22.31 0 1 0 0 44.619c2.506 0 4.993-.425 7.356-1.26a22.55 22.55 0 0 0 11.327-8.875 22.01 22.01 0 0 0 2.973-6.806l.094-.38h4.356a.47.47 0 0 0 .47-.471v-9.037a.47.47 0 0 0-.47-.471h-4.36l-.093-.38a22.01 22.01 0 0 0-2.973-6.806A22.55 22.55 0 0 0 69.46 48.49a22.07 22.07 0 0 0-7.353-1.258zm0 43.678a21.368 21.368 0 1 1 20.908-25.79.473.473 0 0 0 .46.374h4.268v8.1h-4.268a.473.473 0 0 0-.461.374A21.453 21.453 0 0 1 62.108 90.91zm0-41.737a20.367 20.367 0 1 0 19.929 24.584 1.478 1.478 0 0 1 1.439-1.168h3.267v-6.1h-3.267a1.477 1.477 0 0 1-1.44-1.168 20.447 20.447 0 0 0-19.928-16.148z"
  />
</svg>
