<svg
  xmlns="http://www.w3.org/2000/svg"
  width="150"
  height="150"
  viewBox="0 0 150 150"
  fill="currentColor"
>
  <path
    d="M111.2,103.3L94.6,83c1.2,0.5,2.3,0.7,3.4,0.7c0.4,0,0.8,0,1.2-0.1c4.4-0.7,6.7-4.8,6.9-5.1
		c0.3-0.6,0.3-1.3-0.2-1.8L92.1,59.6c0.2,0,0.4,0,0.6,0l0,0c0.3,0,0.7,0,1-0.1c3.7-0.6,5.5-4,5.6-4.1c0.1-0.3,0.2-0.6,0.2-0.9
		c0,0,0,0,0,0c0,0,0-0.1,0-0.1c0-0.3-0.1-0.5-0.3-0.8l-22.8-28c-0.1-0.1-0.1-0.2-0.2-0.2c-0.7-0.6-1.7-0.5-2.3,0.2L51,53.5
		c-0.3,0.4-0.5,0.9-0.4,1.4c0,0,0,0,0,0c0,0.1,0,0.2,0.1,0.3c0,0,0,0,0,0.1c0,0,0,0.1,0,0.1c0.1,0.1,1.9,3.6,5.6,4.1
		c0.3,0.1,0.7,0.1,1,0.1l0,0c0.2,0,0.4,0,0.6,0L44,76.6c-0.1,0.2-0.2,0.3-0.3,0.5c0,0,0,0,0,0c-0.1,0.2-0.1,0.3-0.1,0.5c0,0,0,0,0,0
		c0,0,0,0,0,0c0,0.1,0,0.2,0,0.3c0,0,0,0.1,0,0.1c0,0.1,0,0.1,0.1,0.2c0,0,0,0.1,0,0.1c0,0,0,0.1,0,0.1c0.1,0.2,2.4,4.4,6.9,5.1
		c0.4,0.1,0.8,0.1,1.2,0.1c1.1,0,2.3-0.2,3.4-0.7l-16.6,20.3c-0.2,0.3-0.4,0.7-0.4,1c0,0.4,0.1,0.7,0.3,1c0.5,0.9,3.1,5,7.8,5.7
		C47,111,47.5,111,48,111l0,0c3,0,6.1-1.4,9.3-4.2c1.2,1.5,3.5,3.6,6.7,4.1c0.9,0.1,1.8,0.1,2.7,0v12.4c0,0,0,0,0,0
		c0,0.9,0.7,1.6,1.6,1.6h13.4l0,0c0,0,0,0,0,0c0.9,0,1.6-0.7,1.6-1.6v-12.4c0.4,0.1,0.8,0.1,1.3,0.1c0.5,0,1,0,1.4-0.1
		c3.2-0.5,5.5-2.6,6.7-4.1c3.2,2.8,6.3,4.2,9.3,4.2l0,0c0.5,0,1,0,1.4-0.1c4.7-0.7,7.3-4.9,7.8-5.7
		C111.6,104.6,111.6,103.8,111.2,103.3z M56.8,56.3c-1-0.2-1.9-0.8-2.6-1.6L75,29.2l20.8,25.5c-0.7,0.8-1.6,1.3-2.6,1.6
		c-2,0.3-4.2-1.4-5.6-2.8c-0.6-0.6-1.7-0.6-2.3,0c-0.1,0.1-0.2,0.2-0.3,0.4l-0.1,0.2c-0.7,1.2-1.8,2-3.2,2.2
		c-1.6,0.2-3.5-0.8-5.5-2.8c0,0,0,0,0,0c-0.6-0.6-1.7-0.6-2.3,0c-2,2-4,3-5.5,2.8c-1.3-0.2-2.5-1-3.2-2.2L65,53.8
		c-0.1-0.1-0.2-0.2-0.3-0.4c-0.6-0.6-1.7-0.6-2.3,0C61,54.9,58.8,56.6,56.8,56.3z M51.2,80.4c-1.9-0.3-3.2-1.6-3.9-2.6l16.5-20.3
		c1.2,1.1,2.6,1.8,4.2,2c0.2,0,0.5,0,0.7,0l0,0c2.4-0.1,4.6-1.1,6.3-2.7c2.4,2,4.7,2.9,7,2.7c1.6-0.2,3-1,4.2-2l16.5,20.3
		c-0.7,0.9-2,2.3-3.9,2.6c-2.2,0.3-4.8-0.9-7.6-3.7c-0.1-0.2-0.3-0.3-0.5-0.4c-0.8-0.4-1.8-0.1-2.2,0.7c-1.1,1.8-2.9,3.1-4.9,3.4
		c-2.2,0.1-4.7-1.2-7.3-3.8c0,0,0,0,0,0c-0.6-0.6-1.7-0.6-2.3,0c-2.7,2.7-5.2,4-7.3,3.8c-1.8-0.2-3.3-1.1-4.3-2.6
		c-0.2-0.3-0.4-0.5-0.6-0.8c-0.4-0.7-1.2-1.1-2-0.8c0,0-0.1,0-0.1,0c0,0,0,0,0,0c0,0,0,0,0,0c-0.2,0.1-0.3,0.2-0.5,0.3
		C56.1,79.4,53.5,80.7,51.2,80.4z M80.1,121.7H69.9V110c1.7-0.7,3.4-1.9,5.1-3.4c1.7,1.5,3.4,2.7,5.1,3.4V121.7z M102.9,107.7
		c-2.8,0.4-5.9-1.1-9.3-4.5c-0.6-0.6-1.7-0.6-2.3,0c0,0-0.1,0.1-0.1,0.1c0,0,0,0,0,0c-0.1,0.1-0.1,0.1-0.1,0.2c0,0,0,0,0,0
		c0,0-2,3.6-5.5,4.2c-0.9,0.1-1.9,0-2.9-0.3c-0.2-0.1-0.4-0.2-0.7-0.2c-1.8-0.7-3.7-2-5.7-4c0,0,0,0,0,0c-0.6-0.6-1.7-0.6-2.3,0
		c-2,2-3.9,3.3-5.7,4c-0.3,0-0.5,0.1-0.7,0.2c-1,0.3-2,0.4-2.9,0.3c-3.5-0.5-5.5-4.1-5.5-4.2c0,0,0,0,0,0c0-0.1-0.1-0.2-0.2-0.2
		c0,0,0,0,0,0c0,0-0.1-0.1-0.1-0.1c-0.6-0.6-1.7-0.6-2.3,0c-3.4,3.4-6.6,5-9.3,4.5c-2.4-0.4-4.1-2.2-4.9-3.3L61,81.3
		c1.5,1.3,3.3,2.1,5.3,2.3c2.9,0.2,5.7-1.1,8.7-3.7c2.8,2.5,5.5,3.7,8.2,3.7l0,0c0.2,0,0.3,0,0.5,0c2-0.2,3.9-1,5.3-2.3l18.8,23.1
		C107.1,105.5,105.4,107.3,102.9,107.7z"
  />
</svg>
